<svg width="1500" height="1125" viewBox="0 0 1500 1125" fill="none" xmlns="http://www.w3.org/2000/svg">
<rect x="0.5" y="0.5" width="1499" height="1124" rx="49.5" stroke="#2F2E2E"/>
<path d="M1051.97 773.046C1028.1 802.552 963.447 827.735 907.442 828.863C906.69 828.863 906.126 829.615 906.126 830.367C906.126 831.118 906.69 831.682 907.63 831.682C964.199 830.367 1029.98 804.807 1054.22 774.737C1054.78 774.173 1054.6 773.234 1054.03 772.67C1053.47 772.294 1052.53 772.294 1051.97 773.046Z" fill="#2F2E2E"/>
<path d="M1023.02 810.445C1018.14 814.768 1003.29 823.789 991.074 826.796C990.323 826.984 989.947 827.735 990.135 828.487C990.323 829.051 990.886 829.615 991.45 829.615C991.638 829.615 991.638 829.615 991.826 829.615C1004.42 826.608 1019.83 817.023 1024.9 812.7C1025.47 812.137 1025.47 811.385 1025.09 810.633C1024.53 810.069 1023.59 810.069 1023.02 810.445Z" fill="#2F2E2E"/>
<path d="M726.083 503.543C725.331 503.73 724.767 504.294 724.955 505.234L772.315 813.451C772.503 814.203 773.067 814.579 773.631 814.579H773.819C774.57 814.391 775.134 813.827 774.946 812.888L727.586 504.67C727.586 503.918 726.834 503.355 726.083 503.543Z" fill="#2F2E2E"/>
<path d="M1137.29 649.758L1047.27 539.251C1048.77 538.499 1049.9 537.936 1050.27 537.56C1051.03 536.808 1053.28 533.613 1054.41 527.787C1055.72 521.397 1051.59 519.894 1049.33 519.142C1048.21 518.766 1048.02 517.075 1048.39 512.94C1048.77 508.617 1044.82 505.422 1040.88 504.107C1040.5 503.919 1040.13 503.919 1039.94 503.919C1040.13 498.657 1037.87 493.018 1033.36 492.079C1032.23 491.891 1031.1 491.703 1030.16 491.891C1030.92 487.568 1030.54 484.373 1029.04 482.118C1027.91 480.239 1025.84 479.111 1023.21 478.735C1018.7 477.983 1008.93 479.675 1005.36 480.99C1004.42 481.366 1003.1 482.306 1001.79 483.434L954.238 425.173C950.292 420.475 943.338 419.535 938.451 423.106L884.513 461.633C884.137 461.821 883.95 462.197 883.95 462.573C883.95 462.761 883.95 463.136 884.137 463.324C876.996 472.721 874.177 475.728 861.209 481.554C858.766 482.682 856.511 483.622 854.255 484.561C841.852 471.03 815.916 447.726 800.693 439.268C791.296 434.006 782.275 432.315 775.886 430.999C772.127 430.247 769.12 429.684 767.616 428.744C755.776 421.038 740.177 419.347 724.015 424.045C710.483 427.992 702.59 427.616 693.569 425.925C689.434 422.918 684.36 420.663 678.346 419.723C675.527 419.347 673.46 419.347 671.956 419.723C678.534 405.064 676.279 387.586 673.272 375.745C672.52 373.114 671.956 370.483 671.204 368.04C679.098 354.696 679.474 340.601 671.768 333.647C670.265 332.332 668.573 331.956 666.694 332.52C664.439 333.272 662.559 335.527 661.056 338.158C658.988 333.084 656.921 328.009 654.854 322.935L653.726 319.928C650.907 312.974 648.088 307.148 645.457 302.262C647.336 300.758 648.464 298.879 648.84 296.812C649.216 293.053 646.772 288.918 641.51 283.844C630.798 273.507 603.359 271.628 584.753 276.327C585.129 274.823 585.317 272.756 584.565 271.252C584.189 270.125 583.25 269.373 582.31 268.997C576.672 266.93 572.537 268.057 569.53 272.568C568.59 273.883 567.651 275.951 568.402 278.018C568.778 279.146 569.718 279.897 571.222 280.649C559.194 285.348 550.924 290.422 541.34 302.074C533.07 312.223 528.56 327.633 531.567 336.091C532.694 339.098 534.574 341.165 537.205 341.729C538.52 342.105 539.648 342.105 540.964 342.105C541.339 342.105 541.715 342.105 542.091 342.105C543.407 351.126 546.414 359.019 549.985 368.228C550.173 368.604 550.173 368.792 550.36 369.168C545.474 366.724 540.964 365.785 538.708 368.792C536.077 372.363 535.889 379.692 541.152 386.27C545.098 391.344 552.616 396.043 559.569 396.982C563.892 411.266 568.027 422.918 580.43 435.51C583.25 438.329 586.257 440.772 589.264 442.651C590.579 444.719 591.707 446.974 592.646 448.853C590.203 452.424 582.498 457.498 579.115 459.566C569.53 458.25 548.481 469.714 527.808 480.803C525.177 482.306 522.358 483.622 519.915 485.125C519.539 485.313 519.163 485.877 519.163 486.253C510.33 489.824 503.188 496.213 491.16 511.624C489.281 513.88 487.401 516.511 485.146 519.33C471.991 536.432 452.069 562.18 430.832 576.651L430.456 576.839C426.134 579.846 424.442 581.161 427.261 586.799C427.637 587.551 428.389 588.679 429.329 589.994C427.074 592.813 425.006 595.257 423.127 597.512C415.421 606.909 412.79 610.104 411.287 613.111C411.099 613.486 410.723 614.238 410.347 615.178C406.964 621.944 398.883 638.106 397.943 645.624C396.816 654.081 396.816 669.68 397.379 673.439C397.943 677.197 402.83 684.715 407.34 684.903C408.468 684.903 409.595 684.903 410.911 684.715C413.918 684.339 417.489 684.151 419.932 685.654C422.563 687.158 429.517 688.661 438.914 688.661C447.935 688.661 459.399 687.158 471.239 682.647C484.019 677.761 492.476 673.626 499.241 670.244C505.443 667.049 510.33 664.605 516.156 662.914C528.372 659.155 542.655 655.584 557.502 658.967C558.442 659.155 559.381 659.343 560.321 659.719C566.711 671.183 566.899 687.722 566.899 689.601C566.899 690.541 568.027 692.42 570.658 695.239C568.778 697.682 568.778 700.877 570.846 704.26C571.034 704.636 572.161 705.952 573.853 708.019C575.92 730.947 576.86 742.036 573.665 761.017C571.597 773.797 565.02 785.637 558.818 797.101C554.495 805.183 550.173 812.7 547.541 820.406C547.353 820.781 547.541 821.345 547.729 821.721C548.293 822.473 560.509 839.199 589.076 849.724C601.48 854.234 615.951 856.678 632.301 856.678C643.39 856.678 655.605 855.55 668.385 853.483C669.701 853.295 671.016 853.107 672.708 852.731C694.133 848.972 750.702 838.824 808.399 851.979C808.962 852.167 809.526 851.791 809.902 851.415C810.278 850.851 810.09 850.288 809.714 849.724C809.714 849.724 805.204 843.898 808.399 817.587V817.399L852.94 808.19C855.383 807.626 857.45 806.122 858.766 804.243C859.894 805.371 861.021 805.746 862.337 805.746C864.216 805.746 866.471 804.619 868.727 803.303C870.794 802.176 871.922 802.739 873.425 803.491C874.553 804.055 876.056 804.807 877.936 804.243C879.815 803.679 880.755 802.364 881.318 801.424C882.07 800.296 882.258 800.108 883.574 800.484C884.325 800.672 884.889 800.86 885.453 801.048C887.52 801.8 889.588 802.552 891.467 801.424C892.783 800.672 893.722 799.169 894.098 797.101C894.85 793.906 895.602 790.524 896.541 789.96C896.729 789.96 897.105 789.96 897.105 790.148C898.233 790.524 898.985 793.531 899.36 795.222C899.736 797.101 900.3 798.981 901.992 798.417C903.119 798.229 903.307 797.101 904.435 793.343C904.999 791.463 905.938 787.705 906.69 786.389C907.442 787.329 908.757 789.772 909.321 791.275C910.825 794.47 911.576 795.598 912.704 795.974C913.08 796.162 913.644 795.974 914.02 795.786C914.959 795.222 914.959 793.906 915.147 789.584C915.147 786.953 915.335 780.751 916.463 779.623C917.59 779.999 919.658 783.57 920.973 785.637C923.229 789.396 924.732 791.463 926.235 791.463C926.987 791.463 927.551 791.087 927.927 790.524C929.055 789.02 929.054 786.013 929.242 781.503C929.242 779.999 929.242 778.12 929.43 776.992C930.37 778.12 932.061 779.999 933.001 781.315C936.948 786.389 938.639 788.268 940.331 788.268C940.895 788.268 941.458 787.892 941.834 787.329C942.586 786.201 942.774 783.946 943.15 779.999C943.338 777.368 943.902 772.857 944.465 771.542C945.781 772.106 948.6 775.301 950.291 777.18C954.05 781.127 955.366 782.63 956.869 782.63C957.433 782.63 957.809 782.442 958.185 781.878C958.749 781.127 958.937 779.811 958.937 776.992C959.125 773.609 959.313 768.347 961.756 767.219C963.823 766.28 967.958 770.79 970.025 773.233C972.28 776.052 973.784 777.556 975.287 776.24C976.227 775.489 976.227 773.797 976.039 769.85C975.851 766.655 975.475 760.829 976.979 759.89C978.106 759.138 982.993 763.085 985.248 764.776C988.819 767.783 990.886 769.287 992.577 768.347C993.893 767.407 994.081 765.34 994.269 761.205C994.457 758.574 994.645 753.876 995.772 753.124C998.403 751.245 999.719 752.184 1002.35 754.44C1003.67 755.567 1004.98 756.695 1006.67 757.259C1008.36 757.822 1009.68 757.634 1010.81 756.883C1012.87 755.379 1013.06 751.808 1013.06 748.238C1013.06 745.043 1013.81 741.096 1015.32 740.344C1016.26 739.968 1017.57 740.908 1018.32 741.66C1023.59 746.358 1026.03 748.426 1027.91 747.674C1029.41 746.922 1029.41 744.855 1029.41 744.291C1029.41 743.539 1029.41 742.787 1029.41 741.848C1029.23 736.961 1029.23 733.015 1031.86 732.639C1033.92 732.263 1037.49 733.766 1040.69 735.082C1045.01 736.773 1047.64 737.713 1049.33 736.961C1049.9 736.773 1050.27 736.21 1050.65 735.646C1051.59 732.827 1051.03 729.256 1050.27 724.933C1050.09 724.182 1050.09 723.43 1049.9 722.49C1049.71 721.551 1049.52 719.671 1050.65 718.731C1051.97 717.792 1054.6 717.98 1058.17 719.483L1059.3 719.859C1064.37 721.926 1066.44 722.866 1068.13 721.738C1069.44 720.611 1069.26 718.544 1069.07 716.476C1068.88 715.912 1068.88 715.349 1068.69 714.785C1074.71 713.093 1088.61 711.778 1088.61 711.778C1088.99 711.778 1089.18 711.59 1089.37 711.402L1136.35 665.357C1140.67 661.223 1141.05 654.457 1137.29 649.758ZM1039.94 506.926C1040.88 507.302 1045.95 509.181 1045.58 512.94C1045.2 515.947 1044.82 520.645 1048.39 521.961C1050.65 522.713 1052.53 523.276 1051.59 527.411C1050.46 532.673 1048.39 535.304 1048.02 535.868C1047.83 536.056 1046.7 536.62 1045.2 537.184C1044.45 537.56 1043.51 537.936 1042.38 538.311C1038.81 539.627 1034.3 540.943 1030.35 541.506C1023.4 542.634 1020.96 541.506 1020.2 540.755C1020.02 540.191 1020.58 537.372 1022.65 536.244C1023.4 535.868 1025.09 535.304 1026.97 534.741C1029.98 533.801 1033.74 532.673 1036.55 531.17C1036.93 530.982 1037.31 530.794 1037.68 530.606C1038.06 530.418 1038.62 530.042 1039 529.666C1041.07 527.975 1043.51 525.344 1043.7 525.344C1044.26 524.78 1044.26 523.84 1043.7 523.276C1043.13 522.713 1042.19 522.713 1041.63 523.276C1040.88 524.028 1038.81 526.095 1037.12 527.411L1034.49 524.028C1036.55 523.089 1038.43 522.525 1039.94 521.961C1040.88 521.585 1041.82 521.397 1042.57 521.021C1043.32 520.645 1043.7 519.894 1043.32 519.142C1042.94 518.39 1042.19 518.202 1041.44 518.39C1040.69 518.766 1039.94 518.954 1039 519.33C1037.31 519.894 1035.05 520.645 1032.61 521.961C1031.86 522.337 1030.92 522.713 1030.16 523.276C1029.41 523.652 1028.66 524.216 1027.91 524.968C1020.77 530.23 1010.24 536.808 1003.48 538.311C1002.16 538.499 999.719 538.875 998.967 537.372C998.216 536.244 998.779 533.989 1000.09 532.673C1002.54 529.854 1009.3 524.968 1015.69 520.081L1017.76 518.578C1019.83 517.075 1021.71 515.571 1023.21 514.443C1023.4 514.255 1023.78 514.068 1023.96 513.88C1024.53 513.504 1024.9 513.128 1025.47 512.752C1027.91 510.873 1029.79 509.369 1031.29 508.617C1034.11 506.738 1037.49 506.174 1039.94 506.926ZM1027.53 495.086C1028.1 494.898 1028.47 494.898 1029.04 494.898C1030.35 494.71 1031.48 494.898 1032.61 495.086C1035.43 495.65 1037.12 499.972 1036.93 503.919C1034.3 504.107 1031.67 504.859 1029.79 505.986C1028.1 506.926 1026.22 508.429 1023.4 510.497C1023.02 510.873 1022.46 511.248 1022.08 511.624C1021.9 511.812 1021.52 512 1021.14 512.376C1019.64 513.504 1017.95 514.819 1015.88 516.511L1014 518.014C1009.12 521.773 1004.42 525.344 1001.03 528.163C995.96 531.17 989.382 531.922 986.563 530.418C985.436 529.854 985.436 529.29 985.436 528.915C985.06 525.532 988.631 522.713 991.826 520.081C993.329 518.954 994.645 517.826 995.584 516.699C998.216 513.692 1002.35 509.745 1006.86 505.798C1008.93 503.919 1010.81 502.603 1012.69 501.476C1013.44 501.1 1014.19 500.536 1014.94 500.16C1016.63 499.408 1018.32 498.469 1020.39 497.717C1023.4 496.213 1025.47 495.462 1027.53 495.086ZM994.645 510.685C996.9 509.181 999.531 506.926 1001.41 505.046C1002.35 504.295 1003.1 503.543 1003.67 503.167C1005.36 501.852 1007.99 499.972 1010.24 498.657L1010.62 499.22C1008.74 500.348 1006.86 501.664 1004.79 503.543C1001.22 506.55 997.84 509.745 995.209 512.564C995.397 511.812 995.021 511.248 994.645 510.685ZM1012.69 497.153C1012.87 497.153 1012.87 496.965 1013.06 496.965C1013.44 496.965 1014.38 496.777 1015.51 496.589C1014.75 496.965 1014 497.341 1013.25 497.717L1012.69 497.153ZM1001.22 487.38C1001.97 486.629 1002.73 486.065 1003.29 485.501C1004.42 484.561 1005.55 483.81 1006.11 483.434C1009.3 482.118 1018.51 480.803 1022.46 481.366C1024.34 481.742 1025.65 482.306 1026.41 483.622C1027.53 485.313 1027.72 488.32 1026.97 492.267C1025.47 492.643 1023.59 493.206 1021.71 493.958C1021.52 493.394 1020.77 493.018 1020.2 493.018C1020.02 493.018 1014 493.77 1012.5 494.146C1012.12 494.146 1011.56 494.522 1011 494.898C1010.24 495.274 1009.49 495.838 1008.55 496.401C1005.92 498.093 1003.1 500.16 1002.16 500.912C1001.6 501.288 1000.85 502.039 999.719 502.979C997.652 504.859 994.457 507.866 992.014 509.181C991.45 509.557 990.886 509.745 990.51 509.933C990.322 509.933 990.134 510.121 989.758 509.933C989.382 509.933 989.007 509.557 988.443 509.181C987.503 508.054 987.315 506.362 987.691 505.61C990.322 499.596 991.638 498.093 993.893 495.462L994.645 494.71C995.772 493.018 998.591 490.011 1001.22 487.38ZM767.616 431.939C769.496 432.691 771.939 433.066 774.946 433.63C781.336 434.758 789.981 436.449 799.002 441.524C813.285 449.605 838.657 472.345 851.061 485.501C841.664 489.072 835.462 490.387 835.462 490.387C833.77 490.763 823.81 491.327 815.54 491.327C813.661 488.32 810.278 486.441 806.519 486.817L751.454 493.018L751.642 491.703C754.837 474.413 762.354 433.818 767.616 431.939ZM725.33 426.301C739.989 422.354 754.085 423.857 764.985 430.623C759.911 436.261 755.212 457.122 749.01 491.327L748.635 493.582L735.855 495.086C730.593 471.03 724.203 438.517 725.33 426.301ZM722.511 427.052C721.947 440.208 727.961 471.782 732.848 495.274L723.639 496.213C717.061 492.267 695.448 486.065 670.828 480.051C677.218 473.285 685.112 469.902 694.884 469.714C698.079 469.714 700.898 470.09 702.966 470.654C705.785 471.218 708.04 471.594 709.544 470.278C710.671 469.338 711.047 468.023 711.047 465.58C711.047 455.807 707.852 439.644 697.14 429.12C704.469 430.247 711.799 429.871 722.511 427.052ZM677.218 422.354C701.65 426.301 708.228 452.424 708.228 465.768C708.228 467.647 707.852 468.211 707.664 468.399C707.1 468.775 705.409 468.399 703.342 468.023C701.086 467.647 698.079 466.895 694.509 467.083C683.984 467.459 674.963 471.218 668.009 478.735C677.218 463.7 678.534 449.981 672.52 433.254C670.641 428.18 669.889 424.609 669.513 423.106C670.64 422.542 672.708 421.602 677.218 422.354ZM642.074 391.156C638.315 400.553 627.979 404.312 618.582 404.312C617.266 404.312 615.763 404.312 614.447 404.124C613.695 403.936 613.132 403.372 613.32 402.621C613.32 401.869 614.071 401.305 614.823 401.493C624.22 402.621 635.684 399.238 639.443 390.217C639.819 389.465 640.571 389.089 641.322 389.465C642.074 389.653 642.45 390.405 642.074 391.156ZM643.202 424.985C643.953 424.985 644.705 425.549 644.705 426.489V436.261C644.705 437.013 644.141 437.765 643.202 437.765C642.45 437.765 641.698 437.201 641.698 436.261V426.489C641.886 425.549 642.45 424.985 643.202 424.985ZM626.099 442.839C625.723 443.215 625.348 443.403 624.972 443.403C624.596 443.403 624.408 443.403 624.032 443.027C617.642 438.141 615.575 431.375 615.011 428.556C614.823 427.804 615.387 427.052 616.139 426.864C616.89 426.677 617.642 427.24 617.83 427.992C618.206 429.871 619.897 436.261 625.723 440.772C626.475 441.336 626.663 442.275 626.099 442.839ZM614.071 443.215C614.635 443.591 614.823 444.531 614.259 445.094C614.071 445.47 613.507 445.658 613.132 445.658C612.756 445.658 612.568 445.658 612.192 445.282C605.802 440.396 603.735 433.63 603.171 430.811C602.983 430.059 603.547 429.308 604.299 429.12C605.05 428.932 605.802 429.496 605.99 430.247C606.554 432.315 608.245 438.705 614.071 443.215ZM611.44 449.229C615.951 449.229 621.025 448.665 626.475 447.538C631.925 446.41 637.751 444.719 644.329 442.651C655.418 438.892 662.747 433.066 667.633 426.301C668.197 428.18 668.949 430.999 670.077 434.382C675.903 450.733 674.399 464.076 664.814 478.923C644.893 474.225 623.844 469.526 607.681 466.143L607.493 465.955C599.224 459.002 597.345 455.619 596.781 452.988C596.593 452.048 596.029 450.733 595.09 449.229C595.09 449.041 594.902 448.853 594.902 448.665C594.526 447.726 593.962 446.786 593.398 445.658C598.66 447.913 604.674 449.229 611.44 449.229ZM650.155 415.212C649.967 414.461 650.155 413.709 650.907 413.333C651.659 412.957 652.411 413.333 652.786 414.085C653.914 416.904 656.169 424.421 653.35 432.878C653.162 433.442 652.599 433.818 652.035 433.818C651.847 433.818 651.659 433.818 651.659 433.818C650.907 433.63 650.531 432.691 650.719 431.939C653.162 424.045 650.907 417.092 650.155 415.212ZM667.07 335.151C667.821 334.775 668.573 334.963 669.325 335.715C674.775 340.601 676.279 351.502 669.513 364.093C668.009 359.395 666.694 354.884 665.002 350.374C665.19 349.246 665.378 348.307 665.566 347.555C665.754 347.555 665.942 347.743 665.942 347.743C666.694 348.495 667.258 350.186 667.07 353.193C667.07 353.945 667.633 354.696 668.385 354.696H668.573C669.325 354.696 669.889 354.133 669.889 353.381C670.265 349.998 669.513 346.991 668.009 345.488C667.634 345.112 667.07 344.736 666.506 344.548C667.446 341.729 668.761 340.413 669.889 340.225C670.641 340.037 671.204 339.286 671.016 338.534C670.828 337.782 670.077 337.218 669.325 337.406C667.446 337.782 665.002 339.661 663.499 345.112L662.183 341.353C663.123 338.722 665.002 335.903 667.07 335.151ZM570.282 277.266C570.094 276.702 570.282 275.763 571.222 274.447C573.101 271.44 575.356 269.937 580.618 272.004C580.994 272.192 581.182 272.38 581.37 272.756C581.934 273.883 581.558 276.139 580.994 277.454C580.806 277.454 580.618 277.642 580.43 277.642C578.363 278.206 576.484 278.958 574.792 279.521C571.222 278.582 570.47 277.642 570.282 277.266ZM548.857 337.782C548.857 337.782 548.669 337.782 548.669 337.97C546.602 338.91 544.534 339.474 542.467 339.661C540.588 339.849 538.708 339.849 537.205 339.474C535.513 339.098 534.386 337.782 533.634 335.715C531.379 328.949 534.198 315.042 543.031 304.329C552.992 292.113 561.637 287.227 575.356 282.341C577.236 281.589 579.303 281.025 581.37 280.273C598.848 274.635 628.543 275.763 639.067 285.911C643.578 290.234 645.833 293.805 645.457 296.624C645.269 298.127 644.329 299.443 642.45 300.57C642.45 300.57 642.262 300.57 642.262 300.758C642.074 300.946 641.698 301.134 641.322 301.322C641.134 301.51 640.758 301.51 640.571 301.698C640.383 301.698 640.195 301.886 640.007 301.886C639.443 302.074 639.067 302.262 638.503 302.45C638.315 302.45 638.127 302.638 637.939 302.638C637.188 302.826 636.436 303.014 635.684 303.202L634.932 303.39C624.596 302.826 605.614 305.269 588.324 312.411C571.034 319.552 556.938 328.949 554.307 334.963C553.368 335.527 552.24 336.279 551.3 336.654C549.985 337.218 549.421 337.406 548.857 337.782ZM640.571 308.84C640.571 308.84 640.571 309.028 640.571 309.216C640.571 309.404 640.383 309.592 640.195 309.779C640.195 309.967 640.007 309.967 639.819 310.155C639.255 310.531 638.503 311.095 637.376 311.659C637.376 311.659 637.376 311.659 637.188 311.659C636.248 312.035 635.12 312.598 633.805 312.974C630.798 313.726 627.415 314.666 623.844 315.418C616.515 317.109 608.245 319.176 597.909 322.559C584.565 327.07 575.168 331.768 568.402 335.151C567.463 335.715 566.335 336.091 565.395 336.654C560.509 339.098 556.938 338.91 555.999 338.158C555.811 337.97 555.435 337.782 555.811 336.654C557.314 332.144 570.094 322.935 588.512 315.23C605.802 308.088 622.528 306.397 631.174 306.397C632.301 306.397 633.241 306.397 633.993 306.397H634.181C634.557 306.397 634.744 306.397 635.12 306.397C636.06 306.397 636.624 306.584 637.188 306.772C637.564 306.772 637.751 306.96 637.939 306.96H638.127C638.503 307.148 638.691 307.336 639.067 307.336C639.255 307.524 639.631 307.712 639.819 307.712L640.007 307.9C640.007 307.9 640.007 307.9 640.007 308.088C640.195 308.276 640.195 308.276 640.195 308.464C640.57 308.652 640.571 308.84 640.571 308.84ZM542.655 384.954C537.957 379.128 538.333 373.114 540.212 370.859C541.152 369.731 543.783 369.356 551.112 373.49C551.676 374.806 552.24 376.309 552.804 377.813C548.669 376.121 544.534 375.37 541.903 375.933C541.152 376.121 540.588 376.873 540.776 377.625C540.964 378.377 541.715 378.94 542.467 378.752C543.783 378.377 546.038 378.752 548.481 379.316C548.105 380.632 548.293 382.323 548.857 383.827C549.609 385.706 550.924 387.21 552.616 387.773C552.804 387.773 552.992 387.961 553.18 387.961C553.743 387.961 554.307 387.586 554.495 387.022C554.871 386.27 554.495 385.518 553.743 385.142C552.428 384.579 551.864 383.451 551.676 382.699C551.3 381.759 551.3 380.82 551.3 380.068C552.24 380.444 553.368 381.008 554.307 381.384C554.871 383.263 555.623 385.142 556.187 387.21C556.75 389.277 557.502 391.344 558.066 393.412C558.066 393.6 558.254 393.975 558.254 394.163C552.24 393.224 546.038 389.089 542.655 384.954ZM585.693 404.312C574.98 401.305 568.778 397.17 565.02 390.593C562.764 386.646 560.885 374.618 559.381 364.657C558.442 357.703 557.502 351.689 556.562 349.246L556.187 347.931C555.247 345.112 553.931 341.917 553.18 338.722C553.367 338.722 553.555 338.534 553.555 338.534C553.743 339.286 554.307 339.849 554.683 340.225C555.623 340.977 557.126 341.541 558.818 341.541C561.261 341.541 564.268 340.789 567.275 339.286C568.215 338.91 569.154 338.346 570.282 337.782C577.048 334.399 586.257 329.701 599.412 325.378C609.561 321.995 617.83 320.116 624.972 318.237C628.543 317.297 631.925 316.545 635.12 315.793C636.06 315.605 636.812 315.23 637.563 315.042C639.819 321.244 643.765 330.828 648.276 334.963C654.666 340.789 659.176 349.81 662.371 364.281C664.627 374.054 661.995 381.008 660.68 383.263C656.545 382.135 641.698 378.377 627.227 379.316C627.979 376.873 628.167 373.49 626.475 369.356C625.723 367.288 624.032 364.469 622.153 361.274C618.77 355.26 614.447 347.743 614.071 342.293C613.883 339.849 615.011 337.594 617.266 335.715C621.213 332.332 628.543 330.453 633.429 331.58C634.181 331.768 634.932 331.204 635.12 330.453C635.308 329.701 634.744 328.949 633.993 328.761C628.355 327.446 620.085 329.513 615.387 333.46C612.38 335.903 610.876 339.098 611.252 342.293C611.628 348.495 616.139 356.388 619.709 362.59C621.589 365.785 623.092 368.416 623.844 370.295C625.348 374.054 625.348 377.625 623.656 380.256C623.656 380.256 623.656 380.256 623.468 380.444C623.28 380.82 622.904 381.196 622.528 381.572C622.341 381.759 622.341 381.759 622.153 381.947C621.965 382.135 621.589 382.511 621.401 382.699C621.213 382.887 621.025 382.887 621.025 383.075C620.649 383.451 620.085 383.639 619.521 383.827C619.521 383.827 619.522 383.827 619.334 383.827C618.77 384.015 618.206 384.203 617.642 384.391C617.454 384.391 617.454 384.391 617.266 384.391C616.89 384.391 616.514 384.579 616.139 384.579C615.951 384.579 615.951 384.579 615.763 384.579C615.199 384.579 614.823 384.579 614.259 384.579C614.071 384.579 614.071 384.579 613.883 384.579C613.507 384.579 613.132 384.391 612.756 384.391C612.568 384.391 612.568 384.391 612.38 384.203C612.004 384.015 611.628 383.827 611.252 383.639C609.373 382.511 608.621 380.256 608.809 377.625C608.809 376.873 608.245 376.121 607.493 376.121C606.742 376.121 605.99 376.685 605.99 377.437C605.802 380.256 606.554 382.699 608.057 384.391C595.841 390.593 587.76 401.117 585.693 404.312ZM591.895 425.549C591.895 424.797 592.646 424.233 593.398 424.233C594.15 424.233 594.714 424.985 594.714 425.737C594.526 428.556 596.405 436.637 603.171 441.712C603.735 442.087 603.923 443.027 603.359 443.591C603.171 443.967 602.607 444.155 602.231 444.155C601.855 444.155 601.667 444.155 601.48 443.967C593.586 438.329 591.519 429.12 591.895 425.549ZM593.398 452.048C593.586 452.612 593.774 452.988 593.962 453.364C594.714 456.371 596.593 459.566 602.231 464.64C593.586 462.761 586.632 461.445 582.686 460.505C585.881 458.626 590.767 455.243 593.398 452.048ZM528.748 483.622C548.293 473.097 570.47 461.069 578.739 462.761C597.533 466.519 698.831 487.568 720.068 497.529L691.877 508.617C691.502 508.805 691.126 508.993 690.75 509.181C685.3 507.866 644.705 498.281 607.493 493.958C574.98 490.199 537.957 486.817 524.989 485.689C526.117 485.125 527.432 484.373 528.748 483.622ZM687.743 515.759L733.975 804.807L736.419 818.714C736.419 819.09 736.607 819.278 736.607 819.654L649.028 833.185C646.209 833.561 643.39 832.997 641.134 831.306C638.879 829.615 637.376 827.171 637 824.352L614.447 675.882C616.515 676.445 618.206 677.009 619.709 677.197C621.777 677.573 624.784 677.573 627.979 677.761L622.716 678.513C621.965 678.701 621.401 679.265 621.589 680.016C621.777 680.768 622.341 681.144 622.904 681.144H623.092L651.471 677.009L651.659 678.513C651.659 678.889 651.847 679.265 652.223 679.452C652.411 679.64 652.786 679.64 653.162 679.64H653.35L708.04 671.559L708.98 677.573L654.102 685.654C653.726 685.654 653.35 685.842 653.162 686.218C652.974 686.594 652.786 686.97 652.974 687.346L653.35 690.165L625.16 694.112C624.408 694.3 623.844 694.863 624.032 695.615C624.22 696.367 624.784 696.743 625.348 696.743H625.535L653.726 692.796L654.102 695.803C654.29 696.555 654.854 696.931 655.418 696.931H655.606L710.483 688.849L711.423 694.487L628.167 706.328C627.415 706.515 626.851 707.079 627.039 707.831C627.227 708.583 627.791 708.959 628.355 708.959H628.543L711.799 697.119L712.363 700.689L658.425 708.771C657.673 708.959 657.109 709.522 657.297 710.274L657.861 714.221L628.73 718.356C627.979 718.544 627.415 719.107 627.603 719.859C627.791 720.611 628.355 720.987 628.918 720.987H629.106L658.237 716.852L658.425 718.731C658.425 719.107 658.612 719.483 658.988 719.671C659.176 719.859 659.552 720.047 659.928 720.047H660.116L714.242 711.966L714.994 716.852L661.432 724.745C661.056 724.745 660.68 724.933 660.492 725.309C660.304 725.685 660.116 726.061 660.304 726.437L660.868 729.82L631.737 733.954C630.986 734.142 630.422 734.706 630.61 735.458C630.798 736.21 631.362 736.586 631.925 736.586H632.113L661.244 732.451L661.62 734.894C661.62 735.646 662.371 736.022 662.935 736.022H663.123L716.685 728.128L717.437 733.391L663.687 741.284C662.935 741.472 662.371 742.036 662.559 742.787L662.747 744.291L633.617 748.426C632.865 748.613 632.301 749.177 632.489 749.929C632.677 750.681 633.241 751.057 633.805 751.057H633.993L663.123 746.922L663.687 751.245C663.687 751.62 663.875 751.996 664.251 752.184C664.439 752.372 664.814 752.56 665.19 752.56H665.378L719.316 744.667L720.068 749.365L637.751 761.205C637 761.393 636.436 761.957 636.624 762.709C636.812 763.461 637.376 763.836 637.939 763.836H638.127L720.444 751.996L721.008 755.943L667.07 763.836C666.694 763.836 666.318 764.024 666.13 764.4C665.942 764.776 665.754 765.152 665.942 765.528L666.694 770.602L638.691 774.549C637.939 774.737 637.376 775.301 637.563 776.052C637.751 776.804 638.315 777.18 638.879 777.18H639.067L667.07 773.233L667.258 773.985C667.258 774.737 668.009 775.113 668.573 775.113H668.761L722.887 767.031L723.827 773.233L670.641 781.127C669.889 781.315 669.325 781.878 669.513 782.63L669.701 784.322L641.134 788.456C640.383 788.644 639.819 789.208 640.007 789.96C640.195 790.712 640.758 791.087 641.322 791.087H641.51L670.077 786.953L670.641 790.899C670.641 791.275 670.828 791.651 671.204 791.839C671.392 792.027 671.768 792.215 671.956 792.215H672.144L725.518 784.322L726.458 789.772L643.014 801.8C642.262 801.988 641.698 802.552 641.886 803.303C642.074 804.055 642.638 804.431 643.202 804.431H643.39L726.834 792.403L727.586 797.665L674.023 805.559C673.647 805.559 673.272 805.747 673.084 806.122C672.896 806.498 672.708 806.874 672.896 807.25L673.648 812.324L644.893 816.459C644.141 816.647 643.578 817.211 643.765 817.962C643.953 818.714 644.517 819.09 645.081 819.09H645.269L674.023 814.955V815.519C674.211 816.271 674.775 816.647 675.339 816.647H675.527L730.405 808.566H730.593H730.781H730.968C730.968 808.566 731.156 808.566 731.156 808.378C731.156 808.378 731.344 808.378 731.344 808.19C731.344 808.19 731.344 808.19 731.344 808.002C731.532 807.814 731.532 807.626 731.72 807.438V807.25V807.062V806.874L729.089 790.336L718.753 725.121V724.933L717.437 716.288V716.1L716.309 708.583L715.746 704.448L714.994 699.938C714.994 699.938 714.994 699.938 714.994 699.75L711.235 676.633L705.973 644.12C705.973 644.12 705.973 644.12 705.973 643.932L704.657 635.287L700.711 607.472L700.335 605.029L692.065 553.534L687.367 524.404L687.179 522.713C687.179 522.713 687.179 522.713 687.179 522.525C687.179 522.337 687.179 522.337 686.991 522.149C686.991 522.149 686.991 521.961 686.803 521.961L686.615 521.773C686.615 521.773 686.615 521.773 686.427 521.773C686.239 521.773 686.051 521.585 685.863 521.585H685.676L630.61 529.666C630.234 529.666 629.858 529.854 629.67 530.23C629.482 530.606 629.294 530.982 629.482 531.358L629.858 533.237L601.292 537.372C600.54 537.56 599.976 538.123 600.164 538.875C600.352 539.627 600.916 540.003 601.48 540.003H601.667L630.234 535.868L630.798 539.627C630.986 540.379 631.549 540.755 632.113 540.755H632.301L686.051 532.861L686.803 537.56L633.053 545.453C632.301 545.641 631.737 546.205 631.925 547.144V547.52L602.983 551.655C602.231 551.843 601.667 552.407 601.855 553.158C602.043 553.91 602.607 554.286 603.171 554.286H603.359L632.489 550.151L633.241 555.602C633.241 555.978 633.429 556.353 633.805 556.541C633.993 556.729 634.369 556.917 634.556 556.917H634.744L688.683 549.024L689.246 552.595L617.642 564.247C616.89 563.119 615.763 562.18 614.635 561.804C612.38 561.052 609.749 561.804 608.245 563.871C607.681 564.623 607.118 565.374 606.554 566.126C605.802 567.066 605.05 568.006 604.111 569.133C602.795 570.637 601.104 571.952 599.412 573.268L593.962 537.372C593.586 534.553 594.338 531.734 595.841 529.478C597.533 527.223 599.976 525.72 602.795 525.344L688.119 512.752C687.555 513.88 687.555 514.819 687.743 515.759ZM642.074 620.064H641.322C633.993 620.064 624.408 619.688 623.28 619.125L618.018 616.869C623.656 613.674 629.482 610.667 633.053 608.788L645.081 607.097C649.028 607.097 653.162 607.285 654.854 606.721C655.793 606.533 656.733 605.969 657.297 605.405L696.576 599.767L697.328 604.465L642.45 612.547C642.074 612.547 641.698 612.735 641.51 613.111C641.322 613.486 641.134 613.862 641.322 614.238L642.074 620.064ZM638.315 591.874C632.677 592.437 621.965 593.753 617.642 594.693C616.139 595.069 615.011 595.257 614.071 595.632C610.876 596.384 609.185 596.948 603.359 596.384C603.171 596.384 602.983 596.384 602.795 596.384L602.231 593.001C606.178 589.806 609.937 586.611 612.944 583.229L637 579.846L637.188 581.349C637.188 582.101 637.939 582.477 638.503 582.477H638.691L692.441 574.583L693.381 580.597L639.067 588.679C638.315 588.867 637.751 589.43 637.939 590.37L638.315 591.874ZM618.582 567.066L689.434 555.602L690.562 562.931L636.812 570.825C636.436 570.825 636.06 571.013 635.872 571.388C635.684 571.764 635.496 572.14 635.684 572.516L636.248 576.839L615.199 579.846C617.454 576.839 618.77 573.644 618.958 570.825C619.146 569.321 618.958 568.193 618.582 567.066ZM656.169 597.512L695.26 591.686L696.012 596.948L658.613 602.21C658.8 600.707 658.237 599.391 657.297 598.451C657.297 598.076 656.733 597.888 656.169 597.512ZM652.411 622.507L699.019 615.554L699.771 620.064L654.102 626.83C654.102 626.266 653.914 625.702 653.726 625.139C653.538 624.011 652.974 623.259 652.411 622.507ZM701.65 631.528L702.402 636.603L657.109 643.369C655.23 641.489 650.155 642.241 642.262 643.556C638.503 644.12 634.744 644.872 632.865 644.684C629.482 644.496 620.837 640.549 615.763 637.918C617.83 637.918 619.897 638.106 621.589 638.106C623.656 638.106 625.536 638.294 626.663 638.294C628.355 638.294 639.443 637.918 645.645 636.415L645.833 638.294C646.021 639.046 646.585 639.422 647.148 639.422H647.336L701.65 631.528ZM704.281 647.879L705.033 652.202L628.918 663.102C627.415 662.914 626.287 662.726 626.099 662.726C624.784 662.538 621.213 660.847 617.454 658.967L618.77 659.343C621.589 660.095 627.415 660.847 632.113 660.847C633.805 660.847 635.308 660.847 636.436 660.471C639.255 659.907 645.457 657.84 649.779 656.148C649.967 656.148 649.967 656.148 650.155 656.148H650.343L704.281 647.879ZM705.409 655.021L706.349 660.659L651.847 668.74C651.095 668.928 650.531 669.492 650.719 670.431L651.283 674.754L642.826 675.882C643.765 674.19 643.953 671.559 641.698 668.928C640.383 667.237 638.127 666.109 635.684 665.169L705.409 655.021ZM431.584 579.658L431.96 579.47C453.573 564.811 473.682 538.687 486.838 521.585C488.905 518.766 490.972 516.135 492.852 513.88C505.631 497.529 512.585 491.515 522.358 488.508C532.319 489.448 572.349 492.831 607.118 496.965C637.939 500.536 670.828 507.678 684.36 510.685L602.231 522.713C598.66 523.276 595.653 525.156 593.398 527.975C591.331 530.794 590.391 534.365 590.955 537.936L596.593 574.959C595.278 575.711 593.774 576.463 592.083 577.214C588.324 578.718 585.505 579.47 583.25 580.222C579.115 581.537 576.484 582.289 572.537 585.484C570.282 587.175 561.637 593.565 548.105 599.203C546.038 589.43 547.166 584.356 547.353 583.792C548.293 582.477 553.18 574.959 552.052 557.481C550.924 540.755 543.031 520.833 532.882 509.181C532.319 508.617 531.567 508.617 530.815 508.993C530.251 509.557 530.251 510.309 530.627 511.061C540.588 522.149 548.105 541.318 549.233 557.669C550.36 574.583 545.662 581.349 545.098 582.101C543.783 583.792 543.219 590.37 545.286 600.143C539.084 602.586 532.131 604.841 524.237 606.345C516.344 608.036 510.518 609.164 506.007 610.291C495.859 612.547 490.596 613.674 478.005 615.366C474.434 615.93 460.902 615.366 454.888 614.238C444.176 604.841 431.96 590.37 429.705 586.048C427.449 582.289 427.637 582.289 431.584 579.658ZM557.69 656.524C542.279 652.765 527.432 656.712 514.84 660.471C508.826 662.35 503.752 664.793 497.55 667.988C490.784 671.371 482.515 675.506 469.923 680.392C445.303 689.789 424.442 685.466 421.059 683.587C417.677 681.708 413.542 682.084 410.347 682.459C409.219 682.647 408.092 682.647 407.152 682.647C404.709 682.647 400.386 676.821 400.01 673.626C399.447 670.432 399.635 655.021 400.574 646.563C401.514 639.61 409.595 623.259 412.79 617.057C413.166 616.118 413.542 615.554 413.73 614.99C415.046 612.171 417.865 608.976 425.194 599.955C426.886 597.888 428.765 595.632 430.832 593.001C435.155 598.639 442.109 606.345 449.062 613.111C448.686 613.111 448.498 612.923 448.123 612.923C437.598 610.479 426.886 607.848 418.616 613.486C418.052 613.862 417.865 614.802 418.24 615.366C418.616 615.93 419.556 616.118 420.308 615.742C427.449 610.855 437.222 613.111 447.559 615.554C449.626 616.118 451.693 616.493 453.761 617.057C458.271 617.997 467.104 618.561 472.93 618.561C475.185 618.561 477.253 618.561 478.193 618.373C490.972 616.493 496.047 615.366 506.383 613.111C511.082 612.171 516.72 610.855 524.613 609.352C552.616 603.526 570.658 590.37 574.041 587.739C577.611 584.92 579.867 584.356 583.813 583.041C586.069 582.289 588.888 581.537 592.834 580.034C594.338 579.47 595.653 578.906 596.781 578.154C597.721 577.59 598.473 577.215 599.412 576.651C602.983 574.395 605.614 571.764 607.681 569.133C608.621 568.006 609.373 567.066 610.125 565.938C610.125 565.938 610.125 565.75 610.313 565.75C611.064 564.811 612.192 564.435 613.32 564.811C613.507 564.811 613.695 564.999 613.883 565.186C614.635 565.75 615.387 566.502 615.575 567.818C615.763 568.757 615.951 569.697 615.951 571.013C615.951 574.02 613.883 577.402 611.064 580.785C610.125 581.913 609.185 583.041 608.057 584.168C605.99 586.236 603.735 588.303 601.292 590.182C600.352 590.934 599.6 591.498 598.848 592.249C597.157 593.565 595.653 594.693 593.962 595.82C593.586 595.82 593.21 595.632 592.646 595.632C586.82 594.881 583.25 594.505 581.746 594.693C580.994 594.881 580.431 595.444 580.618 596.196C580.806 596.948 581.37 597.512 582.122 597.324C583.437 597.136 587.948 597.7 592.458 598.264C593.022 598.264 593.586 598.451 594.15 598.451C596.029 598.639 597.909 598.827 599.788 599.015C600.728 599.015 601.667 599.203 602.607 599.203C608.997 599.767 610.876 599.203 614.259 598.451C615.199 598.264 616.327 597.888 617.642 597.7C622.716 596.572 633.241 595.256 638.127 594.881C638.691 594.881 639.067 594.881 639.631 594.881C640.195 594.881 640.571 594.881 640.571 594.881C640.571 594.881 640.758 594.881 640.946 595.069C641.886 595.256 643.578 595.82 645.457 596.572C646.397 596.948 647.148 597.324 648.088 597.512C649.028 597.888 649.779 598.263 650.531 598.639C652.786 599.579 654.478 600.519 654.854 600.895C655.23 601.27 655.418 602.022 655.23 602.774C655.23 602.962 655.23 602.962 655.042 603.15C654.854 603.714 654.29 604.277 653.35 604.465C651.847 604.841 647.9 604.841 644.141 604.653C643.765 604.653 643.39 604.653 643.014 604.653C638.879 604.465 636.436 604.465 635.308 604.841C634.744 605.029 633.429 605.593 631.55 606.533C629.482 607.66 626.663 608.976 624.032 610.479C619.522 612.923 615.011 615.366 613.508 616.306C613.132 616.493 612.756 617.057 612.756 617.621C612.756 618.185 613.132 618.561 613.508 618.937L621.213 622.507C623.092 623.447 636.248 623.635 640.571 623.635C640.946 623.635 641.51 623.635 641.886 623.635C644.141 623.635 645.833 623.635 647.148 623.823C649.028 624.199 649.967 624.951 650.531 626.454C650.719 627.018 650.719 627.394 650.719 627.77C650.719 628.333 650.719 628.709 650.719 629.273C650.719 629.837 650.343 630.401 650.155 630.777C649.592 631.716 648.652 632.468 647.524 633.22C647.524 633.22 647.336 633.22 647.336 633.408C647.148 633.596 646.584 633.784 646.209 633.784C645.833 633.972 645.269 633.972 644.893 634.16C639.819 635.287 629.858 635.851 626.287 635.851C625.16 635.851 623.28 635.851 621.213 635.663C609.749 635.287 609.749 635.475 609.185 636.415C608.997 636.791 608.809 637.542 609.185 637.918C610.125 639.422 627.227 647.503 632.301 647.879C634.557 648.067 638.315 647.315 642.45 646.751C643.577 646.563 645.269 646.188 646.772 646C649.779 645.624 652.974 645.248 654.29 645.436C654.478 645.436 654.666 645.624 654.666 645.624C654.854 646 655.042 646.375 655.23 646.751C655.605 647.691 655.418 648.443 655.418 649.007C655.042 650.322 653.914 651.45 652.786 652.014C652.223 652.202 651.471 652.577 650.531 652.953C650.155 653.141 649.592 653.329 649.216 653.517C648.84 653.705 648.276 653.893 647.9 654.081C643.578 655.584 637.939 657.652 635.12 658.216C631.362 658.967 622.716 658.028 618.77 657.088L617.078 656.712C615.199 656.336 613.132 655.772 611.064 655.396C610.125 655.209 608.997 655.021 608.057 654.833C606.742 654.645 605.426 654.457 604.299 654.457C603.547 654.457 602.795 655.021 602.795 655.772C602.795 656.524 603.359 657.276 604.111 657.276C605.05 657.276 606.178 657.464 607.306 657.652C607.306 657.84 607.494 658.028 607.681 658.028C607.869 658.028 608.057 658.216 608.433 658.404C609.185 658.779 610.125 659.343 611.628 660.095C614.823 661.786 619.146 664.23 622.341 665.357C623.468 665.733 624.408 666.109 625.16 666.109C626.099 666.297 627.227 666.485 628.355 666.673C632.489 667.424 637.188 669.116 639.067 671.183C640.758 673.251 640.007 674.754 639.819 675.318C639.255 676.07 638.503 676.446 638.127 676.258C636.812 675.882 633.617 675.882 629.858 675.694C626.475 675.506 622.529 675.506 620.085 675.13C618.394 674.942 616.327 674.378 613.883 673.626C612.944 673.251 612.004 673.063 610.876 672.687C609.373 672.123 607.494 671.559 605.802 670.807C603.359 669.868 600.728 668.928 597.721 667.988C587.76 663.666 571.785 659.907 557.69 656.524ZM599.6 595.82C599.224 595.82 598.66 595.632 598.097 595.632C598.472 595.257 598.848 595.069 599.412 594.693L599.6 595.82ZM569.154 689.601C569.154 687.722 568.966 672.499 563.328 660.659C575.544 663.666 588.324 666.861 596.969 669.868C599.788 670.807 602.419 671.747 604.862 672.687C607.306 673.626 609.373 674.378 611.44 674.942L621.213 739.217C620.085 738.277 618.77 736.961 617.266 735.646C604.487 724.182 570.47 693.548 569.154 689.601ZM572.913 702.757C572.161 701.441 571.034 699.374 572.161 697.494C579.115 704.824 592.646 717.228 615.387 737.901C618.206 740.532 620.461 742.412 621.777 743.727C621.777 743.727 621.777 743.727 621.965 743.727L624.596 760.641C610.125 747.862 574.041 704.824 572.913 702.757ZM671.768 849.724C670.077 850.1 668.761 850.288 667.446 850.476C636.436 855.738 610.313 854.61 589.639 846.905C564.832 837.696 552.428 823.601 549.985 820.594C552.616 813.264 556.562 806.122 560.697 798.417C567.087 786.765 573.665 774.737 575.92 761.581C578.927 743.539 578.363 731.887 576.484 711.966C588.7 726.625 615.199 757.259 624.972 764.776L633.993 824.916C634.556 828.487 636.436 831.494 639.255 833.749C641.51 835.441 644.329 836.38 647.148 836.38C647.9 836.38 648.464 836.38 649.216 836.192L737.922 822.473C739.05 823.601 740.741 824.352 742.621 824.352L775.698 823.788H775.886L804.64 817.962C802.573 836.004 803.888 844.65 805.204 848.596C748.447 836.004 692.817 845.965 671.768 849.724ZM852 805.371L775.886 820.969L742.996 821.533C741.869 821.533 740.741 820.969 740.177 820.218C740.177 820.218 740.177 820.03 739.989 820.03C739.614 819.654 739.426 819.09 739.426 818.526L736.982 804.619L690.374 515.383C690.186 514.067 690.75 512.752 691.69 511.812C691.877 511.624 692.253 511.436 692.629 511.248L723.451 499.22L749.386 496.401H749.762L806.519 490.011C809.338 489.636 811.782 491.139 812.909 493.582C812.909 493.582 812.909 493.582 812.909 493.77C813.097 494.334 813.285 494.898 813.285 495.462L856.699 798.417C857.45 801.612 855.383 804.619 852 805.371ZM864.968 801.988C862.149 803.303 861.209 803.303 859.706 801.424C859.894 800.296 860.082 799.169 859.894 798.041L816.48 495.086C816.48 494.898 816.48 494.71 816.292 494.522C817.044 494.522 817.796 494.522 818.547 494.522L864.968 801.988ZM872.485 800.108C871.17 799.732 869.29 799.545 867.035 800.86C866.847 801.048 866.471 801.236 866.283 801.236L820.239 494.146C821.178 494.146 822.306 494.146 823.246 493.958L872.485 800.108ZM878.687 799.92C878.123 800.86 877.748 801.424 876.808 801.612C876.056 801.8 875.492 801.612 874.365 801.048C874.177 801.048 874.177 800.86 873.989 800.86L824.561 494.146C825.501 494.146 826.629 494.146 827.568 493.958L882.634 797.477C880.379 797.289 879.439 798.793 878.687 799.92ZM891.091 796.538C890.715 797.853 890.339 798.793 889.776 799.169C889.024 799.545 887.52 798.981 886.017 798.605C885.453 798.417 884.701 798.229 883.95 798.041L828.696 494.146C830.012 494.146 831.139 493.958 832.079 493.958L891.279 795.41C891.279 795.598 891.279 795.974 891.091 796.538ZM898.045 787.517C896.917 787.141 895.978 786.953 895.038 787.517C893.722 788.268 892.971 789.584 892.219 792.027L833.582 493.582C834.522 493.582 835.462 493.394 835.838 493.394C835.838 493.394 835.838 493.394 836.026 493.394L899.924 789.396C899.548 788.456 898.797 787.892 898.045 787.517ZM906.502 783.194C904.247 782.818 903.119 786.013 901.804 791.087L837.341 492.831C837.717 492.831 838.093 492.643 838.657 492.455L910.637 787.892C909.133 785.073 908.006 783.382 906.502 783.194ZM923.041 783.946C920.409 779.811 918.154 776.052 915.523 776.616C912.892 777.18 912.328 781.503 912.14 787.892L839.972 492.079C840.724 491.891 841.288 491.703 842.227 491.515L925.108 787.141C924.356 786.201 923.604 784.885 923.041 783.946ZM939.015 784.51C937.888 783.194 936.196 781.127 935.069 779.623C931.498 775.113 930.182 773.421 928.679 773.421C926.235 773.421 926.235 776.616 926.235 781.503C926.235 782.63 926.236 783.946 926.048 785.261L843.543 491.139C844.295 490.951 845.047 490.575 845.798 490.387L939.015 784.51ZM952.359 775.301C948.6 771.354 946.345 768.911 944.465 768.723C941.458 768.535 940.895 773.421 940.331 779.811C940.331 780.751 940.143 781.691 940.143 782.442L847.302 489.824C848.241 489.448 848.993 489.26 849.933 488.884L955.554 778.308C954.426 777.368 953.111 776.24 952.359 775.301ZM972.092 771.354C968.897 767.595 964.575 762.709 960.44 764.588C956.493 766.468 956.306 772.106 956.118 776.428L851.061 488.508C852 488.132 853.128 487.756 854.255 487.192L973.22 772.294C973.22 772.482 973.22 772.669 973.22 772.857C972.844 772.294 972.468 771.918 972.092 771.354ZM989.946 765.152C989.007 764.588 987.879 763.649 986.939 762.897C982.617 759.514 978.294 755.943 975.475 757.822C973.032 759.326 973.032 763.836 973.22 768.347L855.759 487.004C857.262 486.441 858.578 485.877 860.081 485.125L989.946 765.152ZM1004.04 752.56C1001.79 750.681 998.591 747.862 994.081 751.057C991.826 752.56 991.638 757.071 991.262 761.205C991.262 762.145 991.074 763.461 991.074 764.4L861.209 484.185C861.397 483.997 861.585 483.997 861.773 483.81C863.089 483.246 864.404 482.494 865.72 481.93L1006.86 754.44C1005.92 754.252 1004.98 753.5 1004.04 752.56ZM1025.65 744.667C1024.15 743.539 1021.71 741.472 1020.02 739.968C1017.76 737.901 1015.88 737.337 1014 738.277C1010.62 739.78 1009.87 745.607 1010.06 748.801C1010.06 752.372 1009.87 754.44 1008.93 755.191C1008.93 755.191 1008.74 755.191 1008.55 755.379L867.035 481.554C868.351 480.803 869.478 480.239 870.606 479.675L1025.65 744.667ZM1041.63 732.639C1037.87 731.135 1034.11 729.82 1031.48 730.008C1026.03 730.759 1026.41 737.713 1026.59 742.224C1026.59 742.6 1026.59 742.975 1026.59 743.351L871.922 478.923C873.613 477.983 874.929 476.856 876.244 475.916L1048.02 734.518C1046.89 734.518 1043.7 733.391 1041.63 732.639ZM1064.75 719.295C1063.62 718.919 1061.93 718.168 1060.23 717.604L1059.11 717.04C1053.28 714.597 1050.27 715.537 1048.77 716.852C1047.08 718.168 1046.52 720.423 1046.89 723.242C1047.08 723.994 1047.27 724.745 1047.27 725.685C1047.83 728.316 1048.21 730.572 1048.21 732.639L877.184 475.164C878.499 473.849 879.815 472.533 881.318 471.03L1064.75 719.295ZM1065.12 713.469C1065.31 714.597 1065.69 715.912 1065.87 717.228C1066.06 717.98 1066.06 718.543 1066.06 718.919L882.258 469.714C883.198 468.399 884.325 467.083 885.453 465.58L1080.72 703.696C1075.83 702.005 1069.26 700.501 1066.81 702.381C1063.43 704.636 1064.18 708.959 1065.12 713.469ZM1067.75 712.342C1067 708.395 1066.62 705.952 1068.32 704.636C1070.01 703.509 1077.71 705.388 1084.1 708.019L1085.42 709.522C1081.1 709.898 1072.64 711.026 1067.75 712.342ZM1134.28 663.478L1088.24 708.395L886.957 462.948L939.767 425.361C943.526 422.73 948.788 423.294 951.795 427.052L999.343 485.501C997.088 487.568 994.645 490.199 992.201 493.018L991.45 493.77C989.007 496.589 987.503 498.281 984.684 504.671C983.932 506.55 984.308 509.181 986 511.061C986.563 511.624 987.127 512.188 987.879 512.564C987.879 512.752 987.879 512.94 987.879 513.316C987.879 515.195 989.195 516.699 991.074 517.074C990.698 517.262 990.322 517.638 990.134 517.826C986.563 520.645 982.053 524.404 982.805 529.29C982.993 530.418 983.556 531.922 985.624 532.861C986.939 533.425 988.819 533.801 990.698 533.801C992.577 533.801 994.833 533.425 996.9 532.861C995.96 534.929 995.772 537.184 996.712 538.875C997.464 540.191 999.343 542.07 1004.23 541.131C1013.63 539.251 1028.1 528.539 1029.79 527.411C1030.73 526.847 1031.48 526.283 1032.23 525.72L1035.05 529.102C1032.42 530.418 1029.23 531.358 1026.41 532.297C1024.15 533.049 1022.46 533.425 1021.52 533.989C1019.08 535.492 1017.76 538.124 1017.57 540.003C1017.39 541.131 1017.76 542.07 1018.32 542.634C1016.82 543.198 1015.51 544.513 1015.51 546.393C1015.51 548.46 1017.2 550.151 1019.26 550.151C1021.33 550.151 1023.02 548.46 1023.02 546.393C1023.02 545.829 1022.84 545.265 1022.65 544.701C1023.59 544.889 1024.53 544.889 1025.65 544.889C1027.16 544.889 1029.04 544.701 1030.92 544.513H1031.1C1031.1 544.701 1031.1 544.889 1031.1 545.077C1031.1 547.144 1032.8 548.836 1034.86 548.836C1036.93 548.836 1038.62 547.144 1038.62 545.077C1038.62 544.325 1038.43 543.574 1038.06 543.01C1040.31 542.446 1042.57 541.694 1044.64 540.943L1135.22 652.014C1137.85 655.209 1137.67 660.283 1134.28 663.478Z" fill="#2F2E2E"/>
<path d="M981.489 483.81C983.556 483.81 985.248 482.118 985.248 480.051C985.248 477.984 983.556 476.292 981.489 476.292C979.422 476.292 977.73 477.984 977.73 480.051C977.542 482.118 979.234 483.81 981.489 483.81Z" fill="#2F2E2E"/>
<path d="M979.61 492.267C977.543 492.267 975.851 493.958 975.851 496.026C975.851 498.093 977.543 499.784 979.61 499.784C981.677 499.784 983.369 498.093 983.369 496.026C983.557 493.958 981.677 492.267 979.61 492.267Z" fill="#2F2E2E"/>
<path d="M977.167 509.181C975.1 509.181 973.408 510.873 973.408 512.94C973.408 515.007 975.1 516.699 977.167 516.699C979.234 516.699 980.926 515.007 980.926 512.94C980.926 510.873 979.234 509.181 977.167 509.181Z" fill="#2F2E2E"/>
<path d="M1003.85 542.446C1001.79 542.446 1000.09 544.137 1000.09 546.205C1000.09 548.272 1001.79 549.963 1003.85 549.963C1005.92 549.963 1007.61 548.272 1007.61 546.205C1007.61 544.137 1005.92 542.446 1003.85 542.446Z" fill="#2F2E2E"/>
<path d="M1046.33 574.771C1044.26 574.771 1042.57 576.463 1042.57 578.53C1042.57 580.598 1044.26 582.289 1046.33 582.289C1048.39 582.289 1050.09 580.598 1050.09 578.53C1050.27 576.463 1048.58 574.771 1046.33 574.771Z" fill="#2F2E2E"/>
<path d="M1043.51 590.746C1041.44 590.746 1039.75 592.438 1039.75 594.505C1039.75 596.572 1041.44 598.264 1043.51 598.264C1045.58 598.264 1047.27 596.572 1047.27 594.505C1047.27 592.438 1045.58 590.746 1043.51 590.746Z" fill="#2F2E2E"/>
<path d="M1074.33 591.122C1072.26 591.122 1070.57 592.814 1070.57 594.881C1070.57 596.948 1072.26 598.64 1074.33 598.64C1076.4 598.64 1078.09 596.948 1078.09 594.881C1078.28 593.001 1076.4 591.122 1074.33 591.122Z" fill="#2F2E2E"/>
<path d="M1061.36 574.207C1059.3 574.207 1057.6 575.899 1057.6 577.966C1057.6 580.033 1059.3 581.725 1061.36 581.725C1063.43 581.725 1065.12 580.033 1065.12 577.966C1065.31 575.899 1063.62 574.207 1061.36 574.207Z" fill="#2F2E2E"/>
<path d="M1058.54 592.625C1056.48 592.625 1054.79 594.317 1054.79 596.384C1054.79 598.451 1056.48 600.143 1058.54 600.143C1060.61 600.143 1062.3 598.451 1062.3 596.384C1062.3 594.317 1060.61 592.625 1058.54 592.625Z" fill="#2F2E2E"/>
<path d="M1030.73 574.207C1028.66 574.207 1026.97 575.899 1026.97 577.966C1026.97 580.033 1028.66 581.725 1030.73 581.725C1032.8 581.725 1034.49 580.033 1034.49 577.966C1034.49 575.899 1032.8 574.207 1030.73 574.207Z" fill="#2F2E2E"/>
<path d="M1047.64 556.917C1045.58 556.917 1043.88 558.609 1043.88 560.676C1043.88 562.743 1045.58 564.435 1047.64 564.435C1049.71 564.435 1051.4 562.743 1051.4 560.676C1051.4 558.609 1049.71 556.917 1047.64 556.917Z" fill="#2F2E2E"/>
<path d="M1033.55 558.232C1031.48 558.232 1029.79 559.924 1029.79 561.991C1029.79 564.058 1031.48 565.75 1033.55 565.75C1035.62 565.75 1037.31 564.058 1037.31 561.991C1037.31 560.112 1035.62 558.232 1033.55 558.232Z" fill="#2F2E2E"/>
<path d="M1017.01 558.232C1014.94 558.232 1013.25 559.924 1013.25 561.991C1013.25 564.058 1014.94 565.75 1017.01 565.75C1019.08 565.75 1020.77 564.058 1020.77 561.991C1020.96 560.112 1019.26 558.232 1017.01 558.232Z" fill="#2F2E2E"/>
<path d="M1016.63 459.19C1037.49 460.693 1051.59 470.466 1054.22 485.313C1054.41 486.065 1054.97 486.441 1055.54 486.441H1055.72C1056.48 486.253 1057.04 485.501 1056.85 484.749C1053.85 468.774 1038.43 457.874 1016.63 456.371C1015.88 456.371 1015.13 456.934 1015.13 457.686C1015.13 458.438 1015.69 459.19 1016.63 459.19Z" fill="#2F2E2E"/>
<path d="M1040.31 452.8C1048.02 451.484 1052.15 455.431 1053.47 459.378C1053.66 459.941 1054.22 460.317 1054.78 460.317C1054.97 460.317 1055.16 460.317 1055.16 460.317C1055.91 460.129 1056.29 459.19 1056.1 458.438C1053.85 452.048 1047.46 448.853 1039.75 449.981C1039 450.169 1038.43 450.92 1038.62 451.672C1038.81 452.424 1039.37 452.988 1040.31 452.8Z" fill="#2F2E2E"/>
<path d="M402.642 716.476C374.639 708.019 361.295 691.668 362.987 667.8C362.987 667.049 362.423 666.297 361.671 666.297C360.92 666.297 360.168 666.861 360.168 667.612C358.288 692.984 372.196 710.462 401.702 719.295C401.89 719.295 401.89 719.295 402.078 719.295C402.642 719.295 403.206 718.919 403.393 718.356C403.957 717.416 403.393 716.664 402.642 716.476Z" fill="#2F2E2E"/>
<path d="M924.545 364.844C925.109 365.22 925.861 365.408 926.424 365.408C927.928 365.408 929.619 364.657 931.311 363.341C933.002 362.025 934.506 360.146 935.821 358.267C938.452 354.32 939.956 349.809 939.016 346.99C939.016 346.802 939.016 346.615 938.828 346.427C938.453 345.487 937.325 340.601 936.009 334.587L954.427 321.619L957.81 335.526C954.803 335.714 951.232 338.909 948.601 342.856C945.406 347.742 943.715 353.756 946.722 355.824C947.286 356.199 948.037 356.387 948.601 356.387C950.105 356.387 951.796 355.636 953.488 354.32C955.179 353.004 956.682 351.125 957.998 349.246C960.253 345.675 961.757 341.728 961.381 338.909L954.615 311.094C954.427 310.719 954.239 310.343 953.675 310.155C953.3 309.967 952.736 309.967 952.36 310.343L931.687 324.814C931.311 325.19 930.935 325.753 931.123 326.317C933.19 336.654 934.506 341.916 935.07 344.923C932.251 345.111 928.68 348.306 926.049 352.253C923.042 356.763 921.35 362.777 924.545 364.844ZM934.13 326.317L952.36 313.538L953.675 318.8L935.258 331.58C934.882 329.888 934.506 328.009 934.13 326.317Z" fill="#2F2E2E"/>
<path d="M402.454 534.929C405.273 534.929 409.22 532.673 412.227 529.478C414.67 527.035 416.549 524.216 417.301 521.773C417.301 521.585 417.301 521.397 417.489 521.209C419.18 514.068 418.429 496.401 417.865 486.817C420.308 488.696 423.503 489.072 426.134 489.26C431.208 489.636 434.779 490.012 434.215 498.657C434.215 499.408 434.779 500.16 435.531 500.16C436.283 500.16 437.034 499.596 437.034 498.845C437.598 487.38 431.396 487.005 426.322 486.629C422.187 486.253 418.805 486.065 417.301 481.178C417.113 480.427 416.361 480.051 415.61 480.239C414.858 480.427 414.482 480.991 414.482 481.742C415.234 491.327 415.985 507.678 415.046 516.699C412.039 515.571 407.528 518.202 403.957 521.773C399.823 525.908 397.004 531.546 399.635 534.177C400.575 534.553 401.514 534.929 402.454 534.929Z" fill="#2F2E2E"/>
<path d="M504.88 731.323C500.933 731.323 497.174 731.323 494.731 728.504C494.355 728.128 493.603 727.94 493.04 728.316C492.476 728.692 492.288 729.256 492.476 730.008C493.415 733.203 494.543 736.773 495.671 740.532C495.671 740.532 495.671 740.532 495.671 740.72C497.55 747.11 499.429 753.5 500.557 757.259C497.55 757.447 493.979 760.641 491.348 764.4C489.657 766.843 488.529 769.475 487.965 771.73C487.213 775.301 488.529 776.804 489.281 777.368C489.845 777.744 490.596 777.932 491.16 777.932C494.167 777.932 497.926 774.737 500.557 770.79C503 767.407 504.504 763.461 504.128 760.641C504.128 759.89 502.436 753.688 499.054 742.224C500.369 742.412 501.873 742.412 503.188 742.412C508.638 742.412 512.961 742.599 514.652 748.989C514.84 749.553 515.404 750.117 515.968 750.117C516.156 750.117 516.156 750.117 516.344 750.117C517.096 749.929 517.471 749.177 517.283 748.426C515.028 739.968 508.826 739.78 503.188 739.78C501.497 739.78 499.617 739.78 498.114 739.405C497.55 737.525 496.986 735.458 496.234 733.391C499.054 734.518 502.06 734.518 504.88 734.518C510.33 734.518 514.652 734.706 516.344 741.096C516.532 741.848 517.283 742.224 518.035 742.036C518.787 741.848 519.163 741.096 518.975 740.344C516.908 731.511 510.518 731.323 504.88 731.323Z" fill="#2F2E2E"/>
<path d="M593.398 343.608C594.15 343.984 594.902 343.608 595.278 342.856C595.654 342.105 595.278 341.353 594.526 340.977C587.572 337.97 575.92 340.413 568.403 350.75C568.027 351.314 568.027 352.253 568.779 352.629C568.966 352.817 569.342 352.817 569.53 352.817C569.906 352.817 570.47 352.629 570.658 352.253C577.048 343.796 587.196 341.165 593.398 343.608Z" fill="#2F2E2E"/>
<path d="M622.717 353.757C621.965 353.381 621.213 353.569 620.838 354.321C620.462 355.072 620.65 355.824 621.401 356.2C623.093 357.14 624.972 357.516 627.04 357.516C631.55 357.516 636.248 355.072 640.383 350.562C640.947 349.998 640.947 349.058 640.383 348.495C639.819 347.931 638.88 347.931 638.316 348.495C633.241 354.321 627.227 356.2 622.717 353.757Z" fill="#2F2E2E"/>
<path d="M599.601 360.71C599.977 359.959 599.601 359.207 598.849 358.831C598.097 358.455 597.345 358.831 596.97 359.583C595.09 363.342 591.332 364.845 589.076 365.409C585.318 366.349 581.371 365.785 579.303 364.093C578.74 363.529 577.8 363.717 577.236 364.281C576.672 364.845 576.86 365.785 577.424 366.349C579.303 367.852 582.123 368.604 585.318 368.604C586.821 368.604 588.137 368.416 589.64 368.04C594.338 366.912 597.721 364.281 599.601 360.71Z" fill="#2F2E2E"/>
</svg>
