<svg width="1500" height="1125" viewBox="0 0 1500 1125" fill="none" xmlns="http://www.w3.org/2000/svg">
<rect x="0.5" y="0.5" width="1499" height="1124" rx="49.5" stroke="#2F2E2E"/>
<path d="M850.455 815.485C850.455 844.442 890.252 867.914 939.341 867.914C975.183 867.914 1006.04 855.413 1020.11 837.389L1020.65 837.539L1039.31 842.651C1038.95 843.209 1038.76 843.855 1038.75 844.517C1038.75 844.703 1038.75 844.909 1038.75 845.132C1038.55 845.981 1038.54 846.861 1038.72 847.714C1038.89 848.568 1039.25 849.373 1039.76 850.077C1040.92 851.13 1042.28 851.943 1043.75 852.468C1045.23 852.994 1046.8 853.221 1048.36 853.137C1053.36 853.137 1057.28 850.562 1057.33 848.342C1057.33 844.61 1057.24 843.658 1056.85 843.061C1055.97 841.961 1054.79 841.143 1053.45 840.71C1051.59 838.558 1048.96 837.219 1046.12 836.979C1044.26 836.456 1033.27 833.602 1024.12 831.214C1026.78 826.395 1028.19 820.988 1028.23 815.485C1028.23 786.528 988.431 763.056 939.341 763.056C890.252 763.056 850.455 786.472 850.455 815.485ZM986.08 836.792C986.061 837.145 985.907 837.478 985.65 837.721C985.393 837.964 985.053 838.099 984.699 838.098H984.606C984.422 838.086 984.242 838.038 984.077 837.957C983.911 837.875 983.764 837.762 983.643 837.623C983.521 837.485 983.429 837.323 983.37 837.149C983.311 836.974 983.287 836.79 983.3 836.606L983.617 831.96C984.527 832.195 985.458 832.339 986.397 832.389L986.08 836.792ZM1052.86 845.729C1053.39 845.288 1053.79 844.707 1054.01 844.05L1054.46 844.386C1054.66 845.619 1054.71 846.872 1054.61 848.118C1053.8 848.915 1052.82 849.527 1051.75 849.91C1050.68 850.293 1049.53 850.439 1048.4 850.338C1045.97 850.483 1043.58 849.673 1041.74 848.08C1041.38 847.726 1041.51 846.009 1041.57 845.375C1041.57 845.114 1041.57 844.871 1041.57 844.647C1041.57 844.423 1041.57 844.013 1042.54 843.565C1042.79 844.403 1043.28 845.153 1043.94 845.73C1044.6 846.307 1045.41 846.688 1046.27 846.83C1046.99 846.993 1047.72 847.074 1048.45 847.073C1050.03 847.147 1051.59 846.672 1052.86 845.729ZM983.318 828.751C983.389 827.204 984.058 825.746 985.184 824.683C986.21 824.049 987.759 824.534 989.27 825L990.371 825.336L993.375 826.12L1023 833.844C1036.34 837.296 1044.31 839.442 1045.39 839.703H1045.65C1046.97 839.839 1048.23 840.239 1049.39 840.878C1050.05 841.201 1050.62 841.689 1051.05 842.296L1051.16 842.52C1051.18 842.619 1051.18 842.72 1051.16 842.819C1051.17 842.953 1051.14 843.088 1051.08 843.209C1051.02 843.33 1050.93 843.434 1050.82 843.509C1050.21 843.869 1049.54 844.099 1048.83 844.185C1048.13 844.272 1047.42 844.213 1046.74 844.013C1046.32 843.97 1045.92 843.799 1045.6 843.521C1045.29 843.244 1045.06 842.874 1044.96 842.464C1044.8 841.864 1044.41 841.35 1043.88 841.028L1042.63 840.636C1037.87 839.237 1021.4 834.796 1021.21 834.74C1016.85 833.546 994.998 827.631 993.226 827.277C992.909 827.252 992.591 827.252 992.274 827.277C991.696 827.261 991.123 827.394 990.611 827.661C990.098 827.929 989.663 828.323 989.345 828.807C989.212 829 989.055 829.175 988.879 829.329H988.393C987.353 829.469 986.299 829.469 985.259 829.329H984.96C984.308 829.252 983.676 829.056 983.094 828.751H983.318ZM970.836 844.237C971.001 844.564 971.03 844.943 970.919 845.292C970.807 845.64 970.563 845.932 970.239 846.103C963.727 849.517 952.626 851.29 941.226 851.29C932.505 851.411 923.815 850.235 915.441 847.801C915.087 847.689 914.792 847.442 914.621 847.113C914.449 846.784 914.415 846.4 914.526 846.047C914.642 845.692 914.893 845.396 915.225 845.225C915.557 845.054 915.943 845.021 916.299 845.132C932.14 850.226 957.738 849.498 968.933 843.621C969.26 843.478 969.628 843.463 969.966 843.576C970.304 843.69 970.588 843.926 970.762 844.237H970.836ZM929.154 839.74C929.21 839.374 929.407 839.046 929.705 838.825C930.002 838.605 930.374 838.511 930.74 838.565C937.463 839.751 944.352 839.612 951.021 838.154C951.2 838.11 951.386 838.102 951.568 838.129C951.75 838.157 951.925 838.221 952.083 838.316C952.241 838.411 952.378 838.537 952.487 838.685C952.596 838.833 952.675 839.002 952.719 839.181C952.763 839.359 952.772 839.545 952.744 839.727C952.716 839.909 952.653 840.084 952.558 840.242C952.463 840.4 952.337 840.537 952.189 840.646C952.04 840.755 951.872 840.834 951.693 840.878C948.026 841.746 944.267 842.172 940.498 842.147C937.088 842.123 933.683 841.855 930.311 841.345C929.947 841.281 929.623 841.077 929.407 840.778C929.191 840.478 929.1 840.106 929.154 839.74ZM966.657 809.682C966.657 818.582 954.436 825.803 939.341 825.803C924.247 825.803 912.026 818.582 912.026 809.682C912.026 800.782 924.247 793.562 939.341 793.562C954.436 793.562 966.657 800.764 966.657 809.664V809.682ZM892.025 781.789C899.171 777.609 906.951 774.922 912.661 774.624C913.031 774.618 913.39 774.754 913.664 775.003C913.938 775.253 914.106 775.598 914.135 775.967C914.142 776.151 914.113 776.335 914.05 776.507C913.986 776.68 913.889 776.838 913.765 776.973C913.64 777.109 913.49 777.218 913.323 777.295C913.156 777.372 912.975 777.415 912.791 777.423C907.53 777.702 900.104 780.296 893.424 784.214C893.214 784.336 892.976 784.4 892.734 784.401C892.425 784.403 892.123 784.303 891.877 784.116C891.631 783.929 891.453 783.666 891.372 783.368C891.291 783.07 891.312 782.753 891.43 782.467C891.548 782.181 891.757 781.943 892.025 781.789ZM887.771 794.961C895.234 787.815 909.19 780.427 923.221 780.035C923.591 780.03 923.948 780.169 924.216 780.424C924.485 780.678 924.643 781.027 924.658 781.397C924.665 781.581 924.636 781.765 924.571 781.938C924.506 782.111 924.407 782.269 924.28 782.403C924.153 782.537 924.001 782.644 923.831 782.718C923.662 782.792 923.48 782.831 923.296 782.833C910.067 783.188 896.615 790.409 889.711 796.976C889.458 797.226 889.116 797.367 888.76 797.368C888.477 797.372 888.199 797.29 887.964 797.133C887.729 796.976 887.547 796.751 887.441 796.488C887.336 796.226 887.313 795.937 887.376 795.661C887.438 795.385 887.582 795.135 887.789 794.942L887.771 794.961Z" fill="#2F2E2E"/>
<path d="M865.418 379.075C865.117 378.891 864.758 378.827 864.412 378.896C864.066 378.965 863.759 379.162 863.552 379.448C860.778 383.583 858.224 387.861 855.903 392.266C855.752 392.593 855.733 392.965 855.85 393.305C855.967 393.646 856.21 393.928 856.529 394.094C856.849 394.259 857.22 394.295 857.565 394.195C857.91 394.094 858.204 393.865 858.384 393.554C860.649 389.251 863.14 385.072 865.847 381.034C865.95 380.878 866.021 380.703 866.055 380.519C866.089 380.335 866.086 380.147 866.046 379.964C866.006 379.781 865.93 379.609 865.822 379.456C865.714 379.303 865.577 379.174 865.418 379.075Z" fill="#2F2E2E"/>
<path d="M866.277 404.488C866.413 404.508 866.551 404.508 866.687 404.488C871.343 402.798 875.773 400.542 879.878 397.771C880.041 397.673 880.183 397.543 880.294 397.388C880.405 397.234 880.484 397.058 880.525 396.873C880.566 396.687 880.569 396.495 880.533 396.308C880.497 396.121 880.424 395.943 880.317 395.786C880.21 395.628 880.073 395.494 879.912 395.392C879.752 395.289 879.572 395.221 879.385 395.19C879.197 395.159 879.005 395.167 878.82 395.213C878.636 395.259 878.462 395.342 878.311 395.457C874.43 398.059 870.252 400.189 865.866 401.801C865.541 401.895 865.261 402.105 865.079 402.39C864.896 402.675 864.823 403.017 864.874 403.351C864.924 403.686 865.093 403.992 865.351 404.211C865.609 404.43 865.938 404.548 866.277 404.544V404.488Z" fill="#2F2E2E"/>
<path d="M875.606 422.865C878.256 423.182 885.756 424.358 885.831 424.377H886.055C886.406 424.376 886.744 424.243 887.001 424.004C887.259 423.766 887.418 423.439 887.446 423.09C887.474 422.74 887.37 422.392 887.153 422.115C886.937 421.839 886.625 421.654 886.279 421.597C885.961 421.597 878.648 420.402 875.942 420.085C875.759 420.062 875.573 420.075 875.396 420.125C875.218 420.175 875.052 420.259 874.908 420.374C874.764 420.489 874.644 420.631 874.555 420.793C874.467 420.955 874.412 421.133 874.394 421.317C874.351 421.682 874.455 422.05 874.682 422.34C874.909 422.63 875.241 422.819 875.606 422.865Z" fill="#2F2E2E"/>
<path d="M1034.89 429.768C1035.22 429.765 1035.54 429.646 1035.79 429.433C1049.41 417.977 1053.04 401.446 1046.05 382.937C1045.9 382.613 1045.64 382.357 1045.31 382.221C1044.98 382.085 1044.61 382.08 1044.28 382.206C1043.94 382.332 1043.67 382.58 1043.52 382.899C1043.36 383.219 1043.33 383.586 1043.44 383.926C1050.1 401.502 1046.83 416.503 1033.99 427.287C1033.78 427.472 1033.62 427.719 1033.55 427.994C1033.48 428.27 1033.49 428.561 1033.59 428.829C1033.69 429.096 1033.86 429.328 1034.1 429.493C1034.33 429.657 1034.61 429.747 1034.89 429.75V429.768Z" fill="#2F2E2E"/>
<path d="M917.474 577.689C917.309 577.77 917.161 577.883 917.039 578.021C916.917 578.159 916.824 578.319 916.764 578.493C916.704 578.667 916.679 578.852 916.691 579.035C916.702 579.219 916.75 579.399 916.83 579.564C916.911 579.73 917.024 579.877 917.162 579.999C917.3 580.121 917.461 580.215 917.635 580.274C917.809 580.334 917.993 580.359 918.177 580.348C918.36 580.336 918.54 580.289 918.706 580.208C981.62 549.441 1047.33 537.761 1057 549.795C1057.79 550.741 1058.35 551.855 1058.65 553.051C1058.94 554.247 1058.96 555.495 1058.7 556.699C1056.18 570.245 1027.67 586.906 1027.37 587.074C1027.1 587.228 1026.89 587.467 1026.77 587.753C1026.66 588.038 1026.64 588.355 1026.72 588.653C1026.8 588.952 1026.98 589.215 1027.22 589.402C1027.47 589.589 1027.77 589.689 1028.08 589.686C1028.33 589.689 1028.57 589.625 1028.79 589.5C1030 588.791 1058.64 572.017 1061.46 557.221C1061.8 555.62 1061.77 553.963 1061.38 552.373C1060.99 550.784 1060.24 549.303 1059.2 548.042C1047.41 533.395 978.542 547.799 917.474 577.689Z" fill="#2F2E2E"/>
<path d="M1106.42 690.886C1102.47 687.397 1089.22 676.258 1084.5 679.505C1081.85 681.371 1081.72 687.957 1081.72 698.629C1081.72 704.619 1081.72 714.619 1080.15 715.422C1078.59 716.224 1073.47 711.168 1070.21 707.958C1065.28 703.051 1062.13 700.085 1059.5 700.495C1055.77 701.074 1056.25 707.585 1057.43 718.239C1057.86 722.101 1058.45 727.4 1058.03 728.389C1057.17 728.669 1052.2 726.523 1039.65 713.295C1039.54 713.124 1039.39 712.98 1039.22 712.871C1039.05 712.763 1038.85 712.694 1038.65 712.668C1038.45 712.643 1038.24 712.661 1038.05 712.723C1037.86 712.785 1037.68 712.888 1037.53 713.025C1037.38 713.163 1037.26 713.331 1037.18 713.519C1037.1 713.707 1037.07 713.91 1037.07 714.113C1037.08 714.316 1037.14 714.515 1037.23 714.696C1037.32 714.877 1037.45 715.035 1037.61 715.16C1047.73 725.758 1054.57 731.132 1057.99 731.132H1058.44C1058.87 731.067 1059.28 730.895 1059.63 730.631C1059.99 730.367 1060.27 730.02 1060.45 729.62C1061.25 727.941 1060.9 724.266 1060.19 717.903C1059.65 713.145 1058.66 704.264 1059.91 703.238C1061.29 703.014 1065.51 707.175 1068.21 709.918C1073.29 714.974 1077.69 719.247 1081.1 718.071C1084.52 716.896 1084.5 710.235 1084.48 698.592C1084.48 692.323 1084.48 682.845 1086.05 681.8C1087.92 680.457 1097.24 686.483 1104.54 692.995C1104.82 693.242 1105.18 693.369 1105.55 693.348C1105.92 693.327 1106.27 693.16 1106.52 692.883C1106.76 692.606 1106.89 692.242 1106.87 691.871C1106.85 691.5 1106.68 691.152 1106.41 690.905L1106.42 690.886Z" fill="#2F2E2E"/>
<path d="M1068.16 813.395C1068.41 813.395 1068.66 813.328 1068.87 813.199C1069.09 813.07 1069.27 812.885 1069.39 812.663C1069.51 812.441 1069.57 812.191 1069.56 811.939C1069.55 811.687 1069.47 811.442 1069.33 811.23C1069.18 810.988 1053.47 787.199 1039.67 773.28C1039.54 773.143 1039.38 773.032 1039.21 772.956C1039.04 772.879 1038.85 772.838 1038.67 772.835C1038.48 772.832 1038.29 772.866 1038.12 772.937C1037.94 773.007 1037.78 773.112 1037.65 773.245C1037.52 773.377 1037.41 773.536 1037.34 773.71C1037.27 773.884 1037.24 774.071 1037.24 774.259C1037.25 774.447 1037.29 774.632 1037.36 774.804C1037.44 774.975 1037.55 775.13 1037.69 775.258C1051.31 788.99 1066.85 812.574 1067 812.779C1067.13 812.968 1067.3 813.123 1067.5 813.231C1067.7 813.338 1067.93 813.394 1068.16 813.395Z" fill="#2F2E2E"/>
<path d="M1071.18 798.245C1071.04 798.122 1070.88 798.029 1070.7 797.969C1070.52 797.909 1070.34 797.885 1070.15 797.897C1069.97 797.909 1069.79 797.957 1069.62 798.039C1069.45 798.122 1069.3 798.236 1069.18 798.375C1069.06 798.515 1068.97 798.678 1068.91 798.853C1068.85 799.029 1068.82 799.215 1068.83 799.401C1068.85 799.586 1068.89 799.767 1068.98 799.934C1069.06 800.101 1069.17 800.249 1069.31 800.372C1073.83 804.271 1082.63 817.519 1082.73 817.649C1082.85 817.845 1083.03 818.005 1083.23 818.116C1083.44 818.226 1083.67 818.284 1083.9 818.284C1084.17 818.286 1084.44 818.208 1084.67 818.06C1084.96 817.856 1085.16 817.55 1085.23 817.204C1085.3 816.858 1085.24 816.497 1085.06 816.194C1084.72 815.485 1075.97 802.424 1071.18 798.245Z" fill="#2F2E2E"/>
<path d="M1081.94 849.237V849.125C1081.92 849.065 1081.89 849.009 1081.85 848.957C1081.87 848.909 1081.87 848.856 1081.85 848.808C1081.38 848.248 1036.14 791.416 1028.92 781.938C1021.7 772.459 999.158 746.655 994.942 742.588C994.789 742.443 994.606 742.334 994.406 742.269C994.206 742.205 993.993 742.186 993.785 742.215C992.796 742.345 931.542 750.835 884.281 757.421C884.774 749.805 885.702 742.224 887.061 734.714C889.628 719.749 891.335 704.648 892.174 689.487C894.263 688.215 896.15 686.637 897.771 684.804C897.921 684.608 898.018 684.377 898.051 684.133C898.051 684.133 898.76 679.039 900.084 672.098C907.716 632.114 906.13 609.911 904.6 588.436L904.283 583.902C903.536 573.061 902.305 563.527 901.223 555.113C900.999 553.396 900.794 551.754 900.588 550.168C906.431 542.259 912.736 534.702 919.47 527.536C923.314 523.525 930.143 516.752 938.128 508.878C952.569 494.586 970.537 476.805 983.336 462.886C995.626 449.668 1006.7 435.368 1016.42 420.159C1017.63 418.293 1018.79 416.428 1019.1 416.204C1028.17 409.282 1024.44 402.322 1019.29 392.676C1018.15 390.549 1016.86 388.124 1015.56 385.549C1008.79 371.481 976.023 326.254 963.447 310.096C950.872 293.938 937.083 275.821 933.874 266.175C937.49 260.8 938.831 254.213 937.606 247.853C936.262 239.251 933.669 235.352 929.732 229.437L928.445 227.571C926.257 224.885 924.656 221.771 923.743 218.429C923.724 217.134 923.774 215.838 923.892 214.548C924.06 211.768 924.303 207.943 924.209 204.23C924.127 198.684 923.577 193.154 922.567 187.699C921.952 184.658 920.328 180.852 917.81 180.236C917.246 180.087 916.651 180.109 916.1 180.298C915.548 180.488 915.066 180.836 914.712 181.3C912.847 183.483 912.753 187.942 912.679 193.073C912.679 194.174 912.679 195.274 912.679 196.357C912.511 201.026 911.93 205.671 910.943 210.238C910.681 209.73 910.451 209.207 910.253 208.671C909.859 205.726 909.816 202.745 910.122 199.79C910.253 198.82 910.421 197.924 910.589 196.86C911.397 192.553 911.815 188.182 911.839 183.8C911.839 178.949 910.701 175.254 908.499 173.687C907.89 173.246 907.162 172.998 906.41 172.978C906.024 172.078 905.373 171.316 904.544 170.795C904.027 170.512 903.436 170.393 902.85 170.453C902.263 170.513 901.709 170.749 901.26 171.131C898.592 173.239 892.789 184.192 891.782 186.58C890.588 189.379 890.177 192.886 890.084 201.767C889.805 201.859 889.541 201.991 889.3 202.159C888.799 202.583 888.401 203.116 888.139 203.718C887.877 204.32 887.757 204.974 887.789 205.63C887.389 204.817 887.113 203.949 886.968 203.055L886.875 202.495C885.479 194.067 883.395 185.767 880.643 177.68C877.023 166.933 873.18 165.123 871.314 165.011C870.681 164.958 870.047 165.096 869.494 165.409C868.942 165.722 868.496 166.195 868.217 166.765C867.153 168.985 867.302 170.161 869.168 184.49L869.616 187.942C871.482 202.327 872.732 211.843 872.657 216.451C872.657 217.104 872.657 217.776 872.657 218.429C871.993 224.01 873.525 229.63 876.93 234.102C883.685 243.713 889.83 253.74 895.327 264.122C899.935 273.246 914.377 298.752 920.384 309.051C926.392 319.35 944.64 354.632 949.696 365.715C950.704 367.917 951.991 370.66 953.428 373.682C958.241 384.019 967.216 403.236 966.973 405.849C966.656 408.778 954.491 419.842 943.744 429.582C940.722 432.324 937.643 435.179 934.62 437.922C919.582 451.803 901.801 461.934 894.114 465.05L890.681 466.394C881.361 469.719 872.618 474.478 864.765 480.499C859.168 484.716 847.469 493.56 842.749 490.481C840.136 488.615 833.979 459.919 837.151 441.429C838.195 441.763 839.283 441.933 840.379 441.933C841.421 441.931 842.458 441.78 843.457 441.485C845.499 440.91 847.344 439.788 848.794 438.239C850.315 436.623 851.412 434.655 851.984 432.511C852.417 430.64 852.586 428.719 852.488 426.801V426.41C852.121 418.198 850.137 410.139 846.648 402.695C846.611 402.578 846.561 402.465 846.499 402.36V402.266C845.208 399.577 843.466 397.128 841.349 395.027C839.77 393.508 837.803 392.453 835.664 391.976C833.525 391.499 831.297 391.618 829.221 392.322C828.072 392.71 826.984 393.263 825.994 393.963C815.582 374.186 801.738 362.394 785.058 358.868C762.668 338.083 710.053 329.127 666.785 348.867C622.155 369.186 607.191 393.646 611.595 438.911C611.848 441.663 611.534 444.438 610.67 447.063C609.807 449.688 608.413 452.108 606.576 454.173C598.889 463.39 583.552 469.566 564.521 471.133C533.418 473.689 504.05 476.115 491.754 513.132C491.66 513.411 491.656 513.713 491.743 513.994C491.83 514.276 492.004 514.522 492.24 514.699C492.477 514.875 492.765 514.97 493.061 514.97C493.356 514.97 493.644 514.875 493.881 514.699C503.536 508.329 515.009 505.288 526.552 506.042C538.642 506.602 542.672 510.221 542.728 511.21C542.784 512.199 538.194 512.367 535.265 512.591C525.936 513.319 510.319 514.457 498.434 527.032C498.222 527.257 498.09 527.547 498.06 527.855C498.03 528.163 498.102 528.472 498.267 528.734C498.431 528.997 498.677 529.197 498.967 529.304C499.258 529.412 499.575 529.42 499.871 529.327C500.916 528.991 510.58 526.342 531.141 535.857C549.034 544.16 562.655 549.758 579.652 549.758C585.403 549.725 591.138 549.151 596.78 548.041C620.327 543.582 640.552 527.219 650.888 504.251C654.937 495.314 658.725 485.276 662.382 475.555C666.431 464.845 670.61 453.781 675.051 444.415C682.29 429.19 699.978 404.897 717.609 402.266C716.472 415.553 719.056 428.894 725.073 440.795C723.414 442.529 722.457 444.815 722.386 447.213C721.919 454.434 724.643 461.785 731.827 472.57C737.256 480.723 742.201 482.738 745.783 482.738C747.591 482.739 749.361 482.214 750.877 481.227C751.926 480.517 752.852 479.641 753.619 478.633C756.839 482.806 760.349 486.746 764.124 490.425C770.094 496.023 777.595 502.292 786.14 505.837C781.532 507.703 775.71 509.568 769.591 511.434C759.105 514.681 748.264 518.058 741.604 522.274C728.201 530.408 716.795 541.444 708.224 554.571C702.531 563.102 697.335 571.954 692.664 581.084C690.387 585.394 688.223 589.48 685.947 593.193C679.771 603.306 670.405 616.068 656.84 634.372C649.116 644.764 644.172 651.91 640.552 657.134C637.921 660.866 636.167 663.459 634.787 665.157C631.651 669.412 627.644 672.949 623.032 675.531L622.286 675.886C617.304 678.237 605.643 683.759 576.424 709.601C564.763 719.937 556.815 727.288 550.434 733.184C541.702 741.263 535.918 746.599 527.335 753.41L527.149 753.522C520.059 751.656 515.823 750.331 515.786 750.331C515.587 750.268 515.376 750.251 515.17 750.28C514.963 750.309 514.766 750.384 514.592 750.499C485 770.37 381.001 830.43 379.303 831.419C379.129 831.51 378.976 831.637 378.855 831.792C378.853 831.835 378.853 831.879 378.855 831.922V832.053C378.772 832.228 378.728 832.419 378.724 832.613C378.724 832.613 378.724 832.613 378.724 832.613C378.966 845.218 380.733 857.748 383.986 869.929C384.076 870.242 384.275 870.513 384.546 870.694C454.83 917.227 546.068 939.001 671.673 939.187H674.08C836.946 939.187 1003.19 910.734 1076.01 893.848C1076.28 893.785 1076.53 893.644 1076.72 893.441C1076.9 893.238 1077.03 892.984 1077.07 892.71C1078.08 886.46 1081.53 861.234 1082.32 849.629C1082.33 849.536 1082.33 849.442 1082.32 849.349C1082.21 849.268 1082.08 849.228 1081.94 849.237ZM993.318 744.995C998.356 750.126 1019.59 774.475 1026.53 783.561C1033.13 792.237 1071.42 840.319 1078.42 849.106C1036.31 868.529 869.448 888.904 852.227 890.975C851.387 882.933 847.058 842.8 841.48 817.798C836.498 795.521 832.99 773.15 832.151 767.422L843.513 765.799L848.402 765.108L882.994 760.276L993.318 744.995ZM754.328 626.162C754.795 627.45 755.28 628.718 755.765 629.894C760.357 640.995 762.959 652.818 763.452 664.821C764.336 676.178 761.885 687.546 756.399 697.529C756.293 697.696 756.223 697.884 756.195 698.08C756.166 698.276 756.18 698.476 756.235 698.667C756.289 698.857 756.384 699.034 756.512 699.185C756.64 699.336 756.799 699.459 756.978 699.544C758.582 700.309 760.168 700.999 761.717 701.69C760.187 704.153 755.858 710.272 745.54 719.657C742.182 722.717 737.032 726.747 731.062 731.412C714.904 744.062 692.85 761.265 680.387 779.176C671.188 779.176 661.729 779.046 652.008 778.803L651.672 773.989C651.672 773.989 651.672 773.989 651.672 773.877C651.677 773.809 651.677 773.741 651.672 773.672C651.678 773.61 651.678 773.548 651.672 773.486V773.374C651.632 773.299 651.574 773.235 651.504 773.187L651.374 773.075H651.206H650.982H650.87C650.784 773.056 650.695 773.056 650.609 773.075C621.651 773.075 589.933 767.907 567.413 763.317C574.316 758.69 584.018 753.447 597.153 746.357L605.661 741.767C642.287 721.915 655.46 714.228 661.281 707.81C665.158 703.172 668.794 698.34 672.177 693.331C674.879 689.267 677.82 685.367 680.984 681.651C685.482 676.696 689.693 671.488 693.597 666.053C695.742 663.236 698.205 660.026 701.06 656.313C706.153 649.709 712.702 641.387 719.718 632.431C727.834 622.076 736.211 611.348 743.843 601.478C746.529 597.989 748.656 595.153 750.373 592.783C748.865 604.065 750.225 615.545 754.328 626.162ZM815.638 762.179L819.37 747.252C827.766 748.167 836.293 748.913 844.838 749.118L842.021 763.242L840.043 763.541C831.859 763.863 823.662 763.407 815.564 762.179H815.638ZM829.165 766.284L828.531 769.511C776.289 775.501 733.375 779.158 683.82 779.27C696.227 762.328 717.236 745.872 732.778 733.707C736.23 731.001 739.402 728.52 742.107 726.244C764.71 750.518 795.97 764.905 829.109 766.284H829.165ZM812.858 761.731C803.988 760.211 795.315 757.707 786.998 754.268L791.458 741.581C799.472 744.246 807.747 746.053 816.142 746.973H816.553L812.858 761.731ZM784.424 753.074C777.921 750.189 771.678 746.75 765.766 742.793L770.523 731.151C776.19 735.026 782.328 738.161 788.79 740.48L784.424 753.074ZM763.433 741.17L762.407 740.442L767.557 728.893L768.247 729.415L763.433 741.17ZM760.094 738.744C754.419 734.478 749.131 729.72 744.29 724.527C745.428 723.576 746.492 722.661 747.406 721.822C750.261 719.228 752.649 716.877 754.683 714.769C757.611 719.352 761.194 723.482 765.318 727.027L760.094 738.744ZM649.265 780.37C649.288 780.719 649.441 781.046 649.693 781.288C649.945 781.529 650.278 781.668 650.627 781.677C661.132 781.956 671.151 782.106 681.04 782.106H681.338C732.461 782.106 776.177 778.374 829.856 772.198H830.08C831.516 781.229 834.67 799.887 838.83 818.489C841.909 832.277 844.596 850.73 846.536 865.787C848.477 880.844 849.633 892.486 849.652 892.692L849.764 894.725C772.613 903.009 686.413 909.782 558.196 895.192L558.028 892.934C618.815 827.351 642.343 790.8 649.191 779.12L649.265 780.37ZM845.043 762.832L847.656 749.249H848.906L846.947 762.552L845.081 762.813L845.043 762.832ZM849.82 762.16L851.686 749.324C861.999 749.425 872.293 748.387 882.378 746.226C881.844 750.044 881.501 753.886 881.352 757.738L849.801 762.16H849.82ZM884.207 734.173C883.703 737.345 883.236 740.349 882.807 743.222C861.612 748.223 838.401 746.599 816.441 744.081C788.267 740.834 767.09 729.677 756.642 712.642C759.508 709.648 762.065 706.373 764.273 702.865C777.296 708.58 791.379 711.48 805.6 711.373C814.242 711.277 822.868 710.616 831.423 709.395C855.156 706.261 877.135 698.201 889.17 691.148C888.272 705.576 886.597 719.945 884.151 734.192L884.207 734.173ZM901.204 580.898C901.204 581.924 901.372 582.932 901.447 583.976L901.764 588.529C903.294 609.818 904.861 631.834 897.286 671.464C896.166 677.36 895.42 681.912 895.289 683.237C889.412 690.066 861.351 702.66 831.087 706.634C800.171 710.701 783.192 708.63 759.534 697.716C764.763 687.534 767.075 676.104 766.213 664.691C765.702 652.39 763.024 640.275 758.302 628.905C757.836 627.655 757.351 626.405 756.884 625.173C752.032 613.06 750.908 599.774 753.657 587.018C755.532 584.111 757.208 581.082 758.676 577.95C759.664 575.916 760.803 573.621 762.407 570.487C768.005 560.225 774.927 549.552 782.931 537.182L786.513 531.678C788.242 534.271 790.415 536.538 792.932 538.376C796.474 540.924 800.733 542.282 805.097 542.257C807.896 542.233 810.674 541.76 813.325 540.858C829.93 535.391 841.2 525.577 846.219 512.871C873.739 540.317 890.7 561.382 901.148 580.917L901.204 580.898ZM906.204 185.181C906.781 183.521 907.194 181.809 907.436 180.068C907.571 178.828 907.571 177.577 907.436 176.337C908.755 178.514 909.331 181.061 909.078 183.595C909.064 187.826 908.664 192.048 907.883 196.207C907.697 197.271 907.529 198.241 907.398 199.249C907.028 202.641 907.122 206.069 907.678 209.436C908.172 210.74 908.797 211.99 909.544 213.168H904.712C904.07 208.73 903.727 204.255 903.685 199.771C903.779 194.818 904.609 189.907 906.148 185.199L906.204 185.181ZM894.263 187.606C895.513 184.677 901.055 174.713 902.902 173.258C902.957 173.21 903.02 173.172 903.088 173.146C903.63 173.239 904.954 175.702 904.656 179.844C904.419 181.386 904.045 182.904 903.536 184.378C901.853 189.399 900.941 194.645 900.831 199.939C900.841 203.381 901.046 206.82 901.447 210.238C899.989 207.228 897.729 204.678 894.916 202.868C894.253 202.45 893.546 202.106 892.808 201.842C892.827 193.409 893.181 189.994 894.263 187.606ZM849.13 493.168C854.41 491.489 860.641 487.104 866.425 482.757C874.08 476.892 882.604 472.259 891.688 469.025L895.159 467.663C903.014 464.472 921.28 454.135 936.505 439.993C939.528 437.213 942.606 434.395 945.61 431.671C960.742 417.92 969.324 409.972 969.735 406.166C970.033 403.367 965.331 392.639 955.947 372.581C954.547 369.559 953.26 366.835 952.215 364.633C946.991 353.196 928.501 317.988 922.474 307.652C916.448 297.315 902.081 271.959 897.491 262.872C891.915 252.36 885.683 242.209 878.833 232.479C877.328 230.517 876.223 228.279 875.583 225.89C874.943 223.502 874.779 221.011 875.101 218.56C875.101 217.869 875.101 217.179 875.101 216.489C875.101 211.675 873.926 202.085 872.042 187.569L871.594 184.117C869.84 170.683 869.728 169.396 870.4 167.959C870.4 167.829 870.624 167.791 870.81 167.791C872.06 167.791 874.915 170.217 877.732 178.576C880.437 186.523 882.484 194.679 883.852 202.962L883.945 203.54C884.43 206.432 885.513 208.018 888.386 212.253L888.666 212.682L889.114 214.343C886.688 214.586 884.598 214.847 883.068 215.127C882.72 215.184 882.407 215.37 882.19 215.649C881.974 215.928 881.871 216.278 881.902 216.629C881.932 216.98 882.094 217.307 882.356 217.544C882.617 217.781 882.958 217.911 883.311 217.907H883.572C885.139 217.627 887.304 217.347 889.841 217.104C891.219 221.761 892.217 226.522 892.827 231.34C892.86 231.707 893.034 232.046 893.313 232.286C893.591 232.526 893.952 232.649 894.319 232.628C894.503 232.614 894.682 232.563 894.847 232.48C895.011 232.396 895.158 232.28 895.277 232.14C895.397 232 895.488 231.837 895.544 231.661C895.601 231.485 895.622 231.3 895.607 231.117C894.944 225.924 893.858 220.795 892.36 215.78L892.211 215.22C891.67 213.354 891.185 211.488 890.793 209.753C889.897 206.021 890.382 204.641 890.644 204.454C890.905 204.268 891.539 204.305 893.237 205.35C896.694 207.799 899.214 211.353 900.383 215.425C900.495 215.761 900.607 216.097 900.719 216.451C902.16 220.571 904.702 224.217 908.07 226.993C920.198 235.968 925.403 246.64 923.538 258.712C923.508 258.894 923.516 259.081 923.559 259.261C923.603 259.441 923.681 259.61 923.791 259.759C923.9 259.908 924.038 260.034 924.196 260.13C924.354 260.226 924.53 260.289 924.713 260.316H924.937C925.269 260.316 925.59 260.198 925.843 259.982C926.096 259.767 926.264 259.469 926.318 259.141C928.37 245.95 922.791 234.363 909.768 224.717C907.079 222.44 904.99 219.538 903.685 216.265C906.652 216.265 909.488 216.153 911.951 216.171C913.929 216.171 915.683 216.171 917.063 216.321C917.434 216.321 917.79 216.173 918.053 215.911C918.315 215.648 918.463 215.292 918.463 214.921C918.463 214.55 918.315 214.194 918.053 213.932C917.79 213.669 917.434 213.522 917.063 213.522C915.794 213.522 914.265 213.391 912.567 213.373C914.07 207.845 914.909 202.158 915.067 196.431C915.067 195.33 915.067 194.211 915.067 193.092C915.067 189.08 915.179 184.527 916.41 183.109C916.474 183.023 916.557 182.953 916.653 182.904C917.138 182.904 918.705 184.77 919.414 188.259C920.399 193.559 920.936 198.933 921.019 204.324C921.112 207.906 920.888 211.656 920.72 214.399C920.531 215.973 920.531 217.564 920.72 219.138C921.647 222.766 923.311 226.164 925.609 229.12L926.896 230.986C930.758 236.789 933.09 240.315 934.359 248.263C936.001 258.917 931.038 264.701 930.833 264.943C930.675 265.121 930.564 265.335 930.512 265.567C930.46 265.799 930.468 266.04 930.534 266.268C933.426 276.194 947.662 294.964 960.798 311.794C973.336 327.858 1005.89 372.843 1012.61 386.724C1013.88 389.374 1015.19 391.799 1016.34 393.963C1021.94 404.281 1023.81 408.685 1016.92 413.946C1015.62 415.355 1014.49 416.922 1013.58 418.611C1004.04 433.68 993.161 447.861 981.079 460.983C968.317 474.846 950.368 492.702 935.964 506.882C928.034 514.718 921.205 521.491 917.306 525.54C911.162 532.063 905.376 538.914 899.973 546.063C899.096 538.47 898.704 532.387 899.618 528.394C899.667 528.213 899.679 528.023 899.653 527.837C899.628 527.651 899.565 527.472 899.468 527.311C899.372 527.149 899.244 527.009 899.092 526.899C898.94 526.788 898.768 526.709 898.585 526.666C898.402 526.623 898.212 526.618 898.027 526.65C897.842 526.683 897.665 526.752 897.507 526.854C897.349 526.956 897.214 527.089 897.108 527.245C897.003 527.4 896.93 527.575 896.894 527.76C895.513 533.712 896.689 542.817 898.312 555.392C899.058 561.102 899.861 567.352 900.532 574.162C889.673 555.654 872.974 535.54 847.338 509.923C848.973 504.498 849.58 498.816 849.13 493.168ZM844.092 403.833C847.437 410.913 849.34 418.587 849.689 426.41C849.447 427.417 848.924 428.126 848.383 428.164C847.152 428.164 844.222 425.682 840.92 415.756C838.028 406.781 839.353 401.837 840.715 401.203C841.405 400.942 842.674 401.632 844.073 403.833H844.092ZM830.024 394.971C830.975 394.654 831.97 394.491 832.972 394.486C835.352 394.505 837.634 395.433 839.353 397.079C839.786 397.493 840.197 397.929 840.584 398.385C840.248 398.437 839.921 398.538 839.614 398.684C836.013 400.382 835.491 407.77 838.345 416.633C841.386 425.962 844.82 430.981 848.327 430.981H848.514C848.845 430.96 849.172 430.89 849.484 430.776C849.409 431.149 849.335 431.485 849.26 431.783C848.855 433.424 848.034 434.932 846.878 436.164C845.721 437.396 844.267 438.31 842.655 438.817C840.733 439.382 838.671 439.23 836.853 438.388L836.591 438.258C835.878 437.89 835.218 437.425 834.632 436.877C834.145 436.413 833.708 435.9 833.326 435.347C828.867 429.246 823.811 413.778 823.475 405.27C823.422 404.341 823.466 403.41 823.605 402.49C823.896 400.777 824.644 399.173 825.77 397.85C826.897 396.526 828.36 395.531 830.005 394.971H830.024ZM720.371 400.867C721.259 393.596 724.067 386.693 728.506 380.866C732.031 376.42 736.424 372.738 741.417 370.044C756.213 361.834 770.934 358.849 783.994 361.517C800.227 364.782 813.586 376.35 823.699 395.848C822.175 397.58 821.155 399.697 820.751 401.968C820.751 401.968 820.751 402.154 820.751 402.248C815.34 389.971 803.567 371.686 780.711 367.749C745.634 361.722 720.427 388.795 725.595 418.126C726.808 424.939 728.58 431.642 730.894 438.164C729.6 438.273 728.335 438.614 727.162 439.172C721.225 427.334 718.865 414.024 720.371 400.867ZM749.123 478.895C747.052 480.257 741.38 482.234 733.935 471.021C725.483 458.333 724.606 451.952 724.942 447.4C724.924 446.543 725.08 445.692 725.4 444.897C725.72 444.102 726.198 443.38 726.805 442.775C727.412 442.17 728.135 441.695 728.931 441.377C729.726 441.059 730.578 440.905 731.435 440.926C731.715 440.926 732.051 440.926 732.349 440.926C733.713 445.421 735.461 449.79 737.573 453.986C741.569 461.86 746.271 469.354 751.623 476.376C750.954 477.364 750.106 478.218 749.123 478.895ZM789.778 507.217C792.927 508.197 796.202 508.706 799.499 508.729C805.033 508.692 810.464 507.227 815.265 504.475C833.774 494.25 832.225 468.502 831.498 456.132C831.475 455.761 831.307 455.414 831.029 455.167C830.75 454.92 830.386 454.794 830.014 454.816C829.643 454.839 829.296 455.008 829.05 455.286C828.803 455.564 828.677 455.929 828.699 456.3C829.408 468.092 830.863 492.664 813.922 502.031C799.443 510.035 784.069 505.762 765.859 488.392C761.77 484.392 757.99 480.088 754.552 475.517L754.459 475.387C748.983 468.276 744.186 460.668 740.13 452.661C735.577 443.463 733.263 435.515 733.263 429.04C733.227 419.002 736.676 409.261 743.022 401.483C744.16 406.781 748.302 417.51 763.545 422.79C783.453 429.712 803.529 423.312 813.511 417.808C815.581 424.152 819.515 429.724 824.799 433.798C826.355 434.987 828.253 435.641 830.21 435.664C830.509 436.149 830.807 436.597 831.106 437.007C831.606 437.681 832.168 438.305 832.785 438.873C833.36 439.389 833.985 439.845 834.651 440.235C831.348 458.278 836.834 489.94 841.405 492.832C842.555 493.534 843.883 493.891 845.23 493.858C845.679 493.855 846.128 493.824 846.573 493.765C847.376 506.564 843.625 528.021 812.746 538.19C805.974 540.429 799.966 539.72 794.853 536.081C787.931 531.156 783.304 521.006 782.894 509.96C785.319 509.121 787.707 508.188 789.778 507.217ZM526.701 756.936C527.505 756.589 528.263 756.144 528.958 755.611C537.634 748.727 543.437 743.353 552.225 735.237C558.587 729.341 566.517 722.008 578.16 711.69C607.079 686.11 618.498 680.699 623.368 678.404L624.133 678.05C629.124 675.275 633.457 671.457 636.839 666.855C638.294 664.989 640.067 662.508 642.735 658.646C646.336 653.44 651.262 646.313 658.967 635.958C672.588 617.579 681.973 604.78 688.223 594.574C690.537 590.843 692.72 586.682 695.015 582.316C699.626 573.302 704.753 564.562 710.37 556.139C718.728 543.33 729.854 532.561 742.928 524.625C749.235 520.614 759.907 517.293 770.206 514.102C773.583 513.057 776.867 512.031 779.946 511.005C780.271 517.328 782.005 523.499 785.021 529.066L780.711 535.615C772.613 548.022 765.635 558.751 760.019 569.199C758.284 572.39 757.146 574.797 756.157 576.774C755.541 578.043 754.981 579.181 754.291 580.338C754.316 575.89 753.77 571.457 752.668 567.147C752.569 566.788 752.331 566.483 752.008 566.3C751.684 566.116 751.301 566.068 750.942 566.167C750.583 566.266 750.278 566.504 750.095 566.827C749.911 567.151 749.863 567.534 749.962 567.893C751.503 573.805 751.833 579.967 750.933 586.01C748.88 589.145 745.951 593.193 741.118 599.444C733.506 609.314 725.11 619.968 717.012 630.379C710.016 639.316 703.467 647.675 698.354 654.28C695.481 658.011 693.018 661.22 690.891 664.038C687.058 669.371 682.928 674.486 678.521 679.356C675.234 683.182 672.187 687.207 669.397 691.409C666.076 696.326 662.507 701.071 658.706 705.627C652.848 712.101 637.473 720.777 603.833 739.006L595.325 743.596C580.529 751.581 569.969 757.272 562.785 762.496L562.599 762.627C556.759 766.899 553.27 770.855 551.404 775.445V775.295C551.341 775.115 551.242 774.949 551.113 774.808C550.984 774.667 550.827 774.554 550.652 774.476C550.477 774.398 550.288 774.357 550.097 774.355C549.906 774.353 549.716 774.39 549.54 774.464C549.363 774.538 549.204 774.648 549.072 774.786C548.939 774.924 548.837 775.088 548.77 775.267C548.704 775.446 548.674 775.637 548.685 775.828C548.695 776.019 548.744 776.206 548.829 776.378C549.352 777.665 550.117 779.363 550.956 781.285C553.565 786.811 555.845 792.487 557.785 798.282C558.474 802.442 558.706 806.666 558.475 810.876C558.475 815.989 558.363 820.821 559.278 823.582C559.999 825.647 560.872 827.655 561.89 829.59C562.719 830.912 563.283 832.382 563.55 833.919C563.55 834.199 562.991 834.311 562.729 834.329C561.287 834.277 559.882 833.859 558.645 833.115C557.408 832.371 556.38 831.325 555.658 830.075C552.863 825.561 550.922 820.571 549.93 815.354C549.708 814.271 549.409 813.204 549.034 812.164C548.214 809.869 546.497 805.951 544.183 805.596L542.504 805.297C540.452 804.943 539.22 804.719 538.138 805.503C537.056 806.286 528.436 817.351 527.951 819.739C527.82 820.41 527.652 822.22 527.429 825.094L527.298 826.773C526.999 830.504 526.589 835.43 526.328 836.438C525.412 839.365 523.409 841.829 520.73 843.323C520.118 843.692 519.413 843.877 518.699 843.858C517.984 843.838 517.291 843.613 516.7 843.211C517.208 841.105 518.113 839.117 519.368 837.352C519.965 836.419 520.264 834.367 519.965 826.661V826.157V825.094C519.965 824.553 519.965 824.011 519.965 823.489V822.892C519.965 821.119 519.816 819.16 519.965 818.731C520.502 817.253 521.223 815.849 522.111 814.552C524.448 810.978 526.199 807.054 527.298 802.928C527.344 802.751 527.356 802.568 527.331 802.387C527.307 802.206 527.247 802.032 527.155 801.874C527.063 801.716 526.941 801.578 526.796 801.468C526.651 801.357 526.485 801.277 526.309 801.23C526.133 801.183 525.949 801.172 525.768 801.197C525.587 801.221 525.413 801.281 525.255 801.373C525.098 801.465 524.96 801.587 524.849 801.732C524.739 801.877 524.658 802.043 524.611 802.219C523.566 806.08 521.916 809.751 519.723 813.097C518.692 814.589 517.87 816.215 517.279 817.929C517.078 819.608 517.078 821.306 517.279 822.985V823.489C516.999 824.664 516.756 825.709 516.57 826.605L516.364 827.5C516.027 829.76 515.334 831.951 514.312 833.994L513.808 834.945C512.707 837.035 509.349 843.378 508.211 844.069C506.345 844.703 501.289 845.394 500.02 844.311C499.94 844.253 499.886 844.166 499.871 844.069C499.647 843.136 501.121 840.729 502.949 839.012C504.087 837.93 506.009 833.508 508.547 825.952C509.703 822.612 510.711 819.515 510.879 818.862C511.708 814.051 512.064 809.17 511.942 804.29C511.923 803.922 511.763 803.576 511.496 803.322C511.229 803.068 510.874 802.927 510.506 802.928C510.322 802.933 510.141 802.974 509.973 803.049C509.805 803.123 509.653 803.231 509.527 803.364C509.401 803.497 509.302 803.654 509.236 803.826C509.17 803.998 509.139 804.181 509.144 804.365C509.263 808.98 508.945 813.597 508.192 818.153C508.062 818.675 507.129 821.586 505.916 825.056C503.005 833.583 501.438 836.606 500.99 837.053C500.542 837.501 497.259 840.58 497.016 843.546C495.839 844.041 494.548 844.203 493.284 844.013C493.214 843.993 493.149 843.958 493.094 843.909C493.039 843.861 492.996 843.801 492.967 843.733C492.034 841.513 495.02 836.4 496.475 833.938C496.997 833.023 497.426 832.314 497.65 831.81C498.135 830.71 499.18 827.333 501.027 820.858L501.345 819.776C501.886 817.91 502.352 816.287 502.595 815.522C502.939 814.409 503.177 813.266 503.304 812.108C503.304 811.38 503.472 810.615 503.546 809.794L503.733 807.928C503.733 807.163 503.901 806.342 504.031 805.484C504.059 805.131 503.951 804.781 503.73 804.504C503.51 804.227 503.192 804.044 502.842 803.992C502.492 803.94 502.135 804.023 501.843 804.224C501.551 804.424 501.347 804.728 501.27 805.074C501.139 805.988 501.046 806.939 500.971 807.648L500.785 809.514C500.785 810.205 500.654 810.839 500.58 811.38C500.039 812.164 498.714 814.048 497.184 816.38C495.654 818.713 492.837 822.799 490.71 826.362C488.844 829.59 486.586 831.4 485.467 831.456C485.402 831.472 485.334 831.466 485.273 831.439C485.212 831.412 485.162 831.366 485.131 831.307C483.545 829.18 487.146 819.254 489.46 815.858L490.038 815C493.149 810.62 495.912 806.003 498.303 801.193C499.945 797.741 506.718 787.628 512.148 779.493C517.204 771.937 520.077 767.608 520.525 766.433C523.193 758.541 524.835 757.757 526.701 756.936ZM546.851 814.291C544.053 818.619 538.008 822.575 530.339 824.776C530.6 821.418 530.731 820.485 530.768 820.28C531.253 818.619 538.903 808.637 539.817 807.76C540.578 807.771 541.335 807.864 542.075 808.04L543.754 808.32C545.074 809.629 546.01 811.274 546.46 813.078C546.516 813.47 546.646 813.88 546.758 814.291H546.851ZM475.951 844.871C475.813 844.744 475.701 844.591 475.623 844.42C475.545 844.249 475.503 844.064 475.498 843.877C475.493 843.689 475.526 843.502 475.594 843.327C475.663 843.153 475.766 842.993 475.898 842.859C476.029 842.725 476.187 842.619 476.36 842.547C476.533 842.475 476.72 842.439 476.907 842.44C477.095 842.442 477.281 842.481 477.453 842.556C477.625 842.63 477.781 842.739 477.91 842.875C482.687 847.539 493.639 851.756 510.058 849.61C510.24 849.587 510.426 849.6 510.603 849.648C510.781 849.697 510.947 849.779 511.093 849.892C511.238 850.005 511.36 850.145 511.452 850.305C511.543 850.464 511.602 850.64 511.625 850.823C511.648 851.006 511.636 851.191 511.587 851.368C511.539 851.546 511.456 851.712 511.343 851.858C511.231 852.003 511.091 852.125 510.931 852.217C510.771 852.308 510.595 852.367 510.412 852.39C507.493 852.776 504.551 852.969 501.606 852.969C488.881 852.969 480.149 849.069 475.839 844.871H475.951ZM501.102 856.775C501.117 857.145 500.988 857.506 500.74 857.782C500.492 858.057 500.147 858.225 499.777 858.249H497.912C491.411 858.171 485.02 856.567 479.254 853.566C478.93 853.394 478.685 853.104 478.57 852.757C478.455 852.409 478.48 852.03 478.638 851.7C478.809 851.376 479.1 851.132 479.449 851.02C479.798 850.909 480.176 850.938 480.504 851.103C486.419 854.186 493.037 855.672 499.703 855.413C500.046 855.444 500.367 855.6 500.604 855.851C500.841 856.102 500.978 856.43 500.99 856.775H501.102ZM421.582 828.788H421.395C421.134 828.881 420.907 829.05 420.742 829.273C420.527 829.545 420.38 829.865 420.313 830.206C420.201 830.616 420.033 831.269 417.682 831.605C416.171 831.829 415.611 831.605 415.462 831.419C415.313 831.232 415.163 830.859 415.126 830.392C416.169 829.672 417.274 829.048 418.429 828.527L419.585 827.93C420.294 827.631 427.049 825.784 443.58 821.53C457.405 817.966 471.846 814.309 472.518 814.067C472.915 814.051 473.31 814.126 473.672 814.288C474.035 814.45 474.355 814.694 474.608 815C475.249 815.555 475.65 816.338 475.727 817.183C475.634 817.556 474.533 818.097 473.208 818.414C472.419 818.63 471.602 818.731 470.783 818.713C470.578 818.713 470.391 818.433 470.037 817.836C469.682 817.239 468.749 815.634 467.014 816.119C464.98 816.66 453.039 819.851 441.919 822.929C426.881 827.09 422.757 828.284 421.47 828.732L421.582 828.788ZM423.149 835.729C421.594 836.752 419.745 837.237 417.887 837.109C415.913 837.35 413.919 836.851 412.29 835.71C411.861 835.318 411.88 834.572 411.973 833.564C411.973 833.247 411.973 832.967 411.973 832.706C411.973 832.445 412.122 832.389 412.421 832.184C412.632 832.789 413.015 833.321 413.521 833.714C414.371 834.327 415.405 834.63 416.451 834.572C416.932 834.569 417.412 834.531 417.887 834.46C420.593 834.068 421.787 833.154 422.365 832.053C422.497 832.136 422.616 832.237 422.72 832.352C422.983 833.438 423.09 834.556 423.037 835.673L423.149 835.729ZM474.981 820.933L475.559 824.067C475.591 824.249 475.588 824.435 475.548 824.615C475.508 824.794 475.433 824.965 475.327 825.115C475.222 825.266 475.087 825.395 474.932 825.493C474.776 825.592 474.603 825.659 474.421 825.691H474.179C473.85 825.688 473.533 825.571 473.281 825.36C473.029 825.149 472.858 824.857 472.798 824.534L472.238 821.53C473.134 821.397 474.015 821.178 474.869 820.877L474.981 820.933ZM515.506 753.204C516.7 753.559 519.518 754.38 523.585 755.499C521.719 756.824 520.021 759.231 517.708 765.201C517.428 765.892 515.021 769.586 512.278 773.691C477.406 781.154 450.483 799.383 443.635 818.582L442.74 818.806C419.361 824.814 418.485 825.28 418.186 825.429L417.048 826.026C415.348 826.681 413.808 827.693 412.533 828.993C411.661 829.187 410.873 829.653 410.282 830.324C409.692 830.994 409.33 831.835 409.249 832.725C409.249 832.911 409.249 833.135 409.249 833.378C409.092 834.16 409.122 834.968 409.336 835.736C409.55 836.504 409.942 837.211 410.48 837.8C412.447 839.31 414.889 840.065 417.365 839.927H417.981C419.268 839.927 425.705 839.46 425.929 836.009C426.022 834.477 425.871 832.94 425.481 831.456C425.384 831.164 425.225 830.897 425.015 830.672C427.571 829.945 432.478 828.564 442.05 825.933C441.838 828.207 441.945 830.499 442.367 832.743C446.994 857.129 487.407 869.966 532.634 861.402C577.861 852.838 610.792 826.101 606.165 801.696C603.049 785.259 583.664 774.064 557.524 771.135C559.45 768.952 561.615 766.993 563.98 765.295C586.164 769.922 618.293 775.37 647.94 775.631C643.145 784.251 620.942 820.914 556.069 890.919C484.198 880.9 417.999 858.753 382.456 832.855C396.543 824.59 487.202 772.03 515.506 753.204ZM569.614 785.259C569.644 785.078 569.709 784.905 569.805 784.75C569.902 784.594 570.029 784.46 570.178 784.354C570.328 784.248 570.496 784.173 570.675 784.133C570.854 784.093 571.039 784.089 571.219 784.121C581.984 785.986 591.295 793.45 591.985 800.913C592.022 801.281 591.911 801.649 591.676 801.936C591.442 802.223 591.103 802.405 590.735 802.443H590.586C590.238 802.444 589.903 802.314 589.647 802.079C589.391 801.844 589.233 801.521 589.205 801.174C588.683 795.782 581.145 788.767 570.752 786.919C570.566 786.891 570.387 786.824 570.228 786.724C570.068 786.623 569.931 786.491 569.824 786.335C569.717 786.18 569.644 786.004 569.608 785.819C569.572 785.634 569.574 785.443 569.614 785.259ZM1074.09 891.441C1000.91 908.234 835.64 936.5 673.707 936.5H671.3C546.516 936.295 455.894 914.764 386.132 868.753C383.296 857.875 381.65 846.72 381.225 835.486C417.701 861.775 482.295 883.381 555.117 893.568L555.341 896.46C555.371 896.782 555.51 897.084 555.733 897.318C555.956 897.552 556.252 897.703 556.572 897.748C604.696 903.421 653.106 906.324 701.564 906.442C758.713 906.442 806.459 902.095 851.219 897.281C851.575 897.239 851.902 897.064 852.134 896.79C852.366 896.517 852.486 896.166 852.469 895.807L852.357 893.755C870.101 891.647 1035 871.701 1078.94 851.905C1078.06 863.604 1075.25 884.519 1074.14 891.441H1074.09Z" fill="#2F2E2E"/>
<path d="M568.402 955.867C565.957 954.879 558.681 953.311 548.606 951.147C526.888 946.464 494.087 939.411 475.13 930.922C474.962 930.842 474.779 930.797 474.593 930.79C474.407 930.782 474.221 930.811 474.047 930.876C473.872 930.941 473.712 931.04 473.577 931.168C473.441 931.295 473.332 931.448 473.256 931.619C473.18 931.789 473.139 931.972 473.135 932.158C473.131 932.345 473.165 932.53 473.233 932.703C473.302 932.876 473.404 933.034 473.535 933.167C473.665 933.3 473.821 933.406 473.992 933.478C493.21 942.079 526.235 949.188 548.027 953.89C557.58 955.942 565.137 957.621 567.375 958.461C567.547 958.539 567.734 958.582 567.922 958.586C568.111 958.59 568.299 958.556 568.474 958.486C568.65 958.416 568.809 958.311 568.943 958.178C569.077 958.044 569.182 957.885 569.253 957.71C569.323 957.535 569.358 957.347 569.354 957.158C569.35 956.969 569.308 956.783 569.23 956.611C569.152 956.439 569.04 956.284 568.901 956.156C568.762 956.029 568.598 955.93 568.42 955.867H568.402Z" fill="#2F2E2E"/>
<path d="M510.057 955.793L509.087 955.606C504.926 954.804 492.295 952.341 482.966 946.893C482.647 946.703 482.265 946.647 481.905 946.738C481.544 946.829 481.235 947.059 481.044 947.378C480.854 947.697 480.798 948.079 480.889 948.44C480.98 948.8 481.21 949.109 481.529 949.3C491.157 955.009 504.199 957.528 508.49 958.349L509.423 958.536H509.703C510.043 958.526 510.368 958.393 510.617 958.162C510.866 957.93 511.022 957.616 511.056 957.278C511.091 956.94 511.001 956.6 510.803 956.324C510.605 956.047 510.314 955.852 509.983 955.774L510.057 955.793Z" fill="#2F2E2E"/>
<path d="M462.107 677.864C468.19 682.155 477.034 684.32 488.229 684.32C496.388 684.225 504.517 683.287 512.484 681.521C531.142 677.584 550.602 669.001 571.257 659.896C590.306 651.5 610.009 642.824 629.637 637.712C629.821 637.671 629.995 637.593 630.148 637.484C630.301 637.374 630.43 637.235 630.528 637.075C630.626 636.914 630.69 636.735 630.718 636.549C630.745 636.363 630.734 636.173 630.687 635.991C630.639 635.809 630.555 635.639 630.44 635.49C630.325 635.341 630.181 635.217 630.017 635.125C629.853 635.033 629.672 634.975 629.485 634.955C629.298 634.935 629.109 634.952 628.928 635.006C609.076 640.175 589.262 648.907 570.118 657.396C549.595 666.426 530.246 674.972 511.906 678.853C490.281 683.424 473.19 682.286 463.787 675.644C461.836 674.364 460.182 672.681 458.936 670.708C457.69 668.735 456.882 666.518 456.566 664.206C456.541 664.024 456.481 663.848 456.389 663.688C456.296 663.529 456.173 663.39 456.027 663.278C455.88 663.166 455.713 663.084 455.535 663.037C455.357 662.99 455.172 662.978 454.989 663.003C454.807 663.027 454.631 663.087 454.472 663.18C454.312 663.272 454.173 663.395 454.061 663.542C453.949 663.688 453.868 663.855 453.82 664.033C453.773 664.211 453.761 664.397 453.786 664.579C454.165 667.253 455.102 669.817 456.535 672.106C457.969 674.394 459.867 676.356 462.107 677.864Z" fill="#2F2E2E"/>
<path d="M692.459 697.809C692.474 697.626 692.452 697.441 692.395 697.265C692.339 697.09 692.248 696.927 692.128 696.787C691.887 696.504 691.543 696.328 691.172 696.298C690.8 696.268 690.433 696.387 690.149 696.629C689.866 696.87 689.69 697.214 689.66 697.585C688.578 710.945 676.6 720.591 665.89 725.162C665.594 725.288 665.35 725.513 665.2 725.797C665.05 726.082 665.003 726.41 665.067 726.726C665.13 727.041 665.301 727.325 665.549 727.53C665.798 727.734 666.109 727.847 666.431 727.849C666.617 727.848 666.801 727.81 666.972 727.737C678.54 722.848 691.284 712.419 692.459 697.809Z" fill="#2F2E2E"/>
<path d="M694.734 710.739C694.38 710.628 693.997 710.662 693.668 710.833C693.339 711.005 693.092 711.3 692.98 711.653C691.115 717.68 686.487 722.643 678.894 726.841C678.717 726.92 678.558 727.034 678.428 727.178C678.298 727.321 678.199 727.49 678.137 727.673C678.075 727.856 678.053 728.051 678.07 728.243C678.087 728.436 678.144 728.623 678.237 728.793C678.33 728.963 678.458 729.111 678.611 729.229C678.765 729.347 678.941 729.432 679.129 729.478C679.317 729.524 679.513 729.531 679.703 729.498C679.894 729.464 680.076 729.392 680.237 729.285C688.503 724.733 693.54 719.228 695.649 712.493C695.76 712.139 695.726 711.756 695.554 711.427C695.383 711.098 695.088 710.851 694.734 710.739Z" fill="#2F2E2E"/>
<path d="M383.315 776.658C383.393 776.294 383.325 775.915 383.126 775.601C382.927 775.287 382.613 775.063 382.251 774.979C381.132 774.717 379.732 775.464 375.683 777.833C372.903 779.456 368.836 781.845 366.877 782.106C367.269 779.743 367.894 777.424 368.743 775.184C370.608 769.586 372.474 763.858 370.347 761.153C367.922 757.944 362.53 760.649 356.839 763.523C353.275 765.388 349.245 767.347 347.099 767.161C347.004 767.169 346.908 767.15 346.823 767.107C346.737 767.065 346.665 766.999 346.614 766.918C345.513 765.276 347.473 758.914 348.779 754.697C349.758 752.061 350.385 749.307 350.644 746.506C350.658 745.986 350.549 745.47 350.325 744.999C350.101 744.529 349.77 744.119 349.357 743.801C347.025 742.047 342.286 743.26 335.102 745.088C332.938 745.648 330.606 746.245 328.18 746.786C327.991 746.816 327.81 746.885 327.649 746.987C327.487 747.09 327.348 747.225 327.241 747.383C327.134 747.542 327.06 747.721 327.024 747.909C326.989 748.097 326.992 748.29 327.034 748.477C327.077 748.664 327.157 748.84 327.27 748.994C327.383 749.149 327.526 749.278 327.691 749.375C327.856 749.472 328.04 749.534 328.23 749.557C328.42 749.581 328.612 749.565 328.796 749.51C331.259 748.951 333.61 748.354 335.793 747.794C340.774 746.525 346.409 745.088 347.678 746.04C347.678 746.04 347.846 746.171 347.864 746.581C347.498 749.071 346.873 751.516 345.999 753.876C343.853 760.817 342.454 765.929 344.133 768.486C344.421 768.911 344.803 769.265 345.25 769.52C345.696 769.776 346.194 769.926 346.708 769.96C349.674 770.221 353.686 768.094 357.902 766.023C361.485 764.157 366.914 761.489 367.94 762.851C368.967 764.213 367.175 770.314 365.888 774.326C364.19 779.568 363.35 782.386 364.414 783.972C364.607 784.248 364.86 784.477 365.154 784.642C365.448 784.806 365.775 784.903 366.112 784.923H366.392C368.78 784.923 372.288 783.057 376.952 780.259C378.456 779.295 380.035 778.453 381.673 777.74C382.033 777.802 382.403 777.725 382.708 777.524C383.013 777.323 383.23 777.013 383.315 776.658Z" fill="#2F2E2E"/>
<path d="M676.749 875.19C676.879 875.209 677.011 875.209 677.14 875.19C677.443 875.19 677.738 875.092 677.98 874.91C678.222 874.729 678.399 874.473 678.484 874.182L686.693 846.438C689.268 846.158 691.955 843.117 693.317 838.658C694.679 834.198 694.175 829.926 692.048 828.34L700.556 799.569C700.663 799.213 700.623 798.829 700.446 798.502C700.27 798.175 699.97 797.931 699.614 797.825C699.258 797.718 698.874 797.758 698.547 797.934C698.219 798.111 697.976 798.411 697.869 798.767L689.287 827.761C686.843 828.265 684.342 831.213 683.036 835.486C682.335 837.593 682.105 839.829 682.365 842.035C682.496 843.361 683.083 844.6 684.025 845.542L675.797 873.38C675.734 873.561 675.709 873.753 675.723 873.945C675.737 874.136 675.791 874.322 675.88 874.492C675.969 874.661 676.092 874.811 676.242 874.931C676.391 875.051 676.564 875.139 676.749 875.19Z" fill="#2F2E2E"/>
<path d="M603.89 875.19C613.629 875.993 622.94 876.403 632.138 876.403C634.956 876.403 637.736 876.403 640.572 876.291C640.826 876.283 641.073 876.206 641.287 876.068C641.501 875.93 641.673 875.736 641.784 875.507C645.155 868.654 648.265 862.285 651.113 856.402C651.228 856.193 651.288 855.959 651.288 855.721C651.288 855.483 651.228 855.248 651.113 855.04C650.991 854.834 650.815 854.665 650.605 854.551C650.395 854.436 650.158 854.379 649.919 854.387C642.717 854.499 629.004 854.573 618.07 853.64C617.83 853.624 617.59 853.669 617.371 853.77C617.153 853.871 616.963 854.025 616.82 854.219C609.786 863.958 604.45 871.011 602.994 872.877C602.839 873.074 602.739 873.31 602.706 873.56C602.673 873.81 602.709 874.063 602.808 874.295C602.897 874.524 603.043 874.727 603.232 874.884C603.421 875.041 603.648 875.146 603.89 875.19ZM618.537 856.532C628.369 857.316 640.18 857.335 647.606 857.26C645.118 862.347 642.469 867.777 639.657 873.548C628.653 873.804 617.643 873.499 606.67 872.634C609.002 869.593 613.275 863.809 618.537 856.532Z" fill="#2F2E2E"/>
<path d="M622.678 849.592C630.141 850.17 638.705 850.319 645.497 850.319C648.464 850.319 651.094 850.319 653.165 850.319C653.428 850.314 653.683 850.237 653.904 850.095C654.125 849.953 654.302 849.753 654.415 849.517C656.934 844.199 659.192 839.33 661.226 834.87C661.326 834.657 661.37 834.422 661.354 834.187C661.337 833.951 661.261 833.724 661.132 833.527C661.012 833.321 660.836 833.153 660.625 833.04C660.414 832.928 660.176 832.877 659.938 832.893C654.173 832.986 643.015 833.061 632.977 832.426C632.733 832.405 632.487 832.451 632.266 832.559C632.046 832.668 631.859 832.835 631.727 833.042C628.593 837.613 625.197 842.464 621.652 847.427C621.509 847.632 621.422 847.87 621.399 848.119C621.376 848.368 621.418 848.618 621.521 848.845C621.634 849.059 621.799 849.24 622.002 849.371C622.204 849.501 622.437 849.577 622.678 849.592Z" fill="#2F2E2E"/>
<path d="M636.783 829.329C644.396 829.945 653.277 830.094 660.087 830.094H662.55C662.819 830.098 663.083 830.022 663.308 829.876C663.534 829.73 663.712 829.52 663.819 829.273C665.89 824.721 667.681 820.672 669.192 817.183C669.285 816.969 669.324 816.736 669.304 816.504C669.284 816.272 669.207 816.049 669.079 815.855C668.951 815.66 668.777 815.5 668.572 815.39C668.367 815.28 668.137 815.223 667.905 815.224C658.576 815.224 651.112 815.13 644.731 814.739C644.481 814.727 644.233 814.782 644.01 814.896C643.788 815.011 643.599 815.182 643.463 815.392C641.056 819.123 638.462 823.116 635.738 827.146C635.601 827.347 635.519 827.58 635.499 827.822C635.48 828.064 635.524 828.307 635.626 828.527C635.733 828.75 635.895 828.941 636.098 829.082C636.301 829.222 636.537 829.308 636.783 829.329ZM645.384 817.575C651.112 817.91 657.811 818.022 665.759 818.041C664.515 820.815 663.147 823.925 661.654 827.37C655.404 827.37 646.952 827.37 639.395 826.792C641.41 823.601 643.425 820.541 645.31 817.575H645.384Z" fill="#2F2E2E"/>
<path d="M648.164 811.604C654.657 811.959 661.356 812.033 666.244 812.033H670.367C670.64 812.032 670.906 811.949 671.132 811.796C671.357 811.644 671.533 811.427 671.636 811.175C674.957 803.357 676.412 799.439 676.412 799.402C676.495 799.195 676.524 798.97 676.498 798.749C676.472 798.527 676.391 798.316 676.263 798.133C676.139 797.949 675.973 797.797 675.778 797.69C675.583 797.583 675.366 797.524 675.144 797.517L654.993 796.976C654.735 796.979 654.482 797.049 654.259 797.18C654.036 797.311 653.852 797.498 653.724 797.723C651.859 801.174 649.657 805.186 647.008 809.496C646.885 809.705 646.82 809.944 646.82 810.186C646.82 810.429 646.885 810.667 647.008 810.877C647.125 811.084 647.292 811.26 647.494 811.387C647.696 811.514 647.926 811.589 648.164 811.604ZM655.833 799.775L673.129 800.242C672.438 801.977 671.263 804.981 669.397 809.216C665.087 809.216 657.848 809.216 650.59 808.918C652.624 805.596 654.359 802.536 655.833 799.775Z" fill="#2F2E2E"/>
<path d="M715.147 877.542C715.42 877.569 715.695 877.569 715.968 877.542C716.747 877.479 717.503 877.244 718.181 876.854C718.859 876.463 719.441 875.927 719.886 875.284C721.241 873.528 722.197 871.497 722.685 869.332C723.582 866.404 723.363 863.246 722.069 860.47C721.711 859.831 721.172 859.312 720.52 858.977L732.48 798.134C732.526 797.95 732.533 797.759 732.502 797.572C732.472 797.385 732.404 797.206 732.302 797.047C732.2 796.887 732.067 796.75 731.911 796.643C731.755 796.536 731.578 796.462 731.392 796.425C731.207 796.389 731.015 796.39 730.83 796.43C730.645 796.469 730.47 796.546 730.315 796.655C730.16 796.764 730.029 796.903 729.93 797.064C729.831 797.226 729.765 797.405 729.737 797.592L717.703 858.791C715.352 859.574 713.188 862.653 712.106 866.776C710.93 872.224 712.199 876.814 715.147 877.542ZM714.923 867.541C715.875 863.642 717.89 861.477 719.065 861.477C719.329 861.58 719.542 861.781 719.662 862.037C720.183 863.077 720.427 864.234 720.371 865.396C720.361 866.528 720.217 867.655 719.942 868.754C719.551 870.513 718.788 872.167 717.703 873.605C716.994 874.463 716.248 874.93 715.837 874.818C714.848 874.575 713.99 871.459 714.96 867.541H714.923Z" fill="#2F2E2E"/>
<path d="M756.642 826.68L754.329 873.773C754.319 873.956 754.345 874.14 754.406 874.314C754.467 874.488 754.562 874.648 754.685 874.784C754.808 874.921 754.957 875.033 755.123 875.112C755.289 875.191 755.47 875.237 755.653 875.247C756.012 875.247 756.357 875.11 756.617 874.863C756.878 874.617 757.034 874.28 757.053 873.922L759.366 826.381C761.531 825.224 763.21 821.903 763.583 817.649C763.975 812.947 762.613 809.067 760.281 807.91L760.84 796.379C760.85 796.195 760.824 796.011 760.763 795.838C760.702 795.664 760.607 795.504 760.484 795.367C760.361 795.23 760.212 795.119 760.046 795.04C759.88 794.96 759.699 794.915 759.516 794.905C759.147 794.895 758.788 795.026 758.514 795.273C758.239 795.519 758.07 795.862 758.042 796.23L757.482 807.798C755.112 808.693 753.247 812.201 752.855 816.716C752.612 818.928 752.867 821.165 753.601 823.265C753.817 824.027 754.203 824.73 754.73 825.322C755.257 825.913 755.91 826.377 756.642 826.68Z" fill="#2F2E2E"/>
<path d="M786.439 832.278L787.764 872.896C787.774 873.261 787.925 873.607 788.187 873.862C788.448 874.116 788.799 874.258 789.163 874.258C789.347 874.253 789.528 874.212 789.696 874.138C789.864 874.063 790.015 873.956 790.142 873.822C790.268 873.689 790.367 873.532 790.433 873.36C790.499 873.188 790.53 873.005 790.525 872.822L789.201 832.054C791.44 830.897 792.932 827.296 792.932 822.725C792.932 817.836 791.066 814.03 788.566 813.228L787.969 794.57C787.959 794.205 787.808 793.859 787.546 793.604C787.285 793.35 786.935 793.208 786.57 793.208C786.386 793.213 786.205 793.254 786.037 793.329C785.869 793.403 785.718 793.511 785.591 793.644C785.465 793.777 785.366 793.934 785.3 794.106C785.234 794.278 785.203 794.461 785.208 794.645L785.824 813.582C783.678 814.833 782.204 818.359 782.204 822.744C782.316 827.52 783.958 831.289 786.439 832.278Z" fill="#2F2E2E"/>
<path d="M809.986 840.356C810.564 845.095 812.729 848.603 815.341 849.237L818.027 871.067C818.068 871.405 818.231 871.717 818.485 871.943C818.739 872.17 819.068 872.296 819.408 872.298H819.632C819.815 872.275 819.991 872.216 820.151 872.125C820.311 872.034 820.451 871.912 820.564 871.766C820.676 871.621 820.759 871.454 820.807 871.277C820.856 871.099 820.868 870.914 820.845 870.731L818.121 848.677C820.173 847.241 821.255 843.472 820.714 839.069C820.173 834.665 818.214 831.176 815.844 830.299L810.975 790.838C810.93 790.469 810.741 790.133 810.449 789.904C810.157 789.675 809.785 789.571 809.417 789.616C809.048 789.66 808.712 789.849 808.483 790.141C808.254 790.434 808.15 790.805 808.195 791.173L813.046 830.467C810.714 831.699 809.445 835.617 809.986 840.356ZM814.37 832.893H814.594C815.639 832.893 817.449 835.43 817.915 839.423C818.382 843.416 817.244 846.289 816.236 846.532C815.229 846.662 813.344 844.125 812.841 840.02C812.337 835.915 813.512 833.005 814.37 832.893Z" fill="#2F2E2E"/>
<path d="M1014.09 592.559C1013.86 592.265 1013.53 592.073 1013.16 592.024C1012.79 591.975 1012.42 592.074 1012.13 592.298C1007.58 595.638 1002.27 597.786 996.678 598.549C996.33 598.581 996.006 598.743 995.772 599.002C995.537 599.261 995.407 599.598 995.409 599.948C995.409 600.321 996.043 609.277 996.491 615.453C994.929 615.302 993.353 615.482 991.864 615.98C990.376 616.479 989.009 617.284 987.852 618.345C983.58 621.703 981.863 626.107 983.822 628.625C984.261 629.138 984.813 629.541 985.435 629.804C986.057 630.066 986.731 630.18 987.405 630.137C990.115 629.954 992.694 628.901 994.756 627.133C996.069 626.246 997.178 625.09 998.011 623.743C998.844 622.395 999.382 620.886 999.588 619.315C999.614 619.092 999.614 618.867 999.588 618.643V618.531C999.346 615.136 999.047 610.938 998.786 607.337C1004.07 606.687 1009.11 604.717 1013.43 601.609C1013.58 601.496 1013.7 601.356 1013.79 601.196C1013.88 601.036 1013.94 600.859 1013.97 600.677C1013.99 600.494 1013.98 600.308 1013.93 600.13C1013.88 599.952 1013.8 599.786 1013.68 599.64C1013.57 599.494 1013.43 599.372 1013.27 599.281C1013.11 599.189 1012.94 599.13 1012.75 599.107C1012.57 599.083 1012.38 599.096 1012.21 599.144C1012.03 599.193 1011.86 599.276 1011.72 599.388C1007.85 602.156 1003.37 603.925 998.655 604.538C998.562 603.139 998.469 601.963 998.413 601.161C1004.04 600.209 1009.37 597.939 1013.96 594.537C1014.09 594.416 1014.21 594.269 1014.29 594.104C1014.37 593.939 1014.42 593.759 1014.43 593.575C1014.44 593.392 1014.42 593.207 1014.36 593.033C1014.3 592.859 1014.21 592.698 1014.09 592.559Z" fill="#2F2E2E"/>
<path d="M437.572 630.249C434.601 631.613 432.172 633.931 430.669 636.835C429.331 639.058 428.526 641.562 428.318 644.149C428.13 645.209 428.252 646.301 428.669 647.294C429.086 648.287 429.78 649.138 430.669 649.746C431.323 650.118 432.063 650.311 432.815 650.306C434.155 650.237 435.448 649.79 436.546 649.019C438.674 647.578 440.438 645.662 441.696 643.421C443.146 641.068 443.968 638.383 444.084 635.622C444.169 634.104 443.676 632.611 442.703 631.443C442.652 631.359 442.59 631.284 442.517 631.219L442.33 631.051L421.974 612.542C426.07 612.152 430.005 610.754 433.43 608.475C438.897 605.396 442.853 603.157 449.14 609.706C449.402 609.897 449.723 609.991 450.046 609.972C450.37 609.953 450.677 609.822 450.915 609.602C451.153 609.382 451.307 609.086 451.351 608.764C451.395 608.443 451.326 608.116 451.155 607.84C443.375 599.724 437.628 602.971 432.068 606.105C428.019 608.381 423.84 610.732 418.243 609.464C417.94 609.393 417.622 609.425 417.339 609.555C417.057 609.685 416.826 609.905 416.682 610.181C416.539 610.457 416.491 610.773 416.548 611.079C416.604 611.385 416.76 611.663 416.993 611.87L437.572 630.249Z" fill="#2F2E2E"/>
<path d="M849.485 344.315C849.992 344.308 850.497 344.258 850.996 344.166C853.144 343.681 855.149 342.704 856.855 341.311C859.319 339.607 861.035 337.023 861.65 334.091C861.65 334.091 862.713 323.045 863.516 314.985H864.84C869.911 314.971 874.949 314.159 879.767 312.578L879.972 323.773C878.996 323.546 877.981 323.546 877.005 323.773C874.849 324.25 872.836 325.228 871.128 326.627C866.874 329.986 865.139 334.389 867.098 336.908C867.54 337.417 868.092 337.818 868.713 338.08C869.334 338.342 870.007 338.458 870.68 338.419C873.392 338.244 875.973 337.189 878.032 335.415C881.315 332.84 883.069 329.65 882.845 327.168L882.379 303.268C882.363 303.126 882.326 302.987 882.267 302.857C882.274 302.776 882.274 302.695 882.267 302.615C882.193 302.51 882.105 302.416 882.006 302.335C881.94 302.251 881.865 302.176 881.782 302.111C881.58 302.004 881.357 301.94 881.129 301.924C880.981 301.938 880.836 301.976 880.7 302.036C880.625 302.03 880.55 302.03 880.476 302.036C877.947 303.353 875.256 304.332 872.471 304.947C869.465 305.632 866.394 305.995 863.31 306.029H863.012C862.888 306.011 862.762 306.011 862.639 306.029C862.382 306.104 862.153 306.252 861.978 306.453C861.803 306.655 861.689 306.903 861.65 307.167C861.65 307.167 861.65 307.167 861.65 307.298C861.65 307.428 861.389 309.91 860.997 313.38C860.437 318.623 859.747 325.545 859.336 329.855C858.24 329.469 857.057 329.398 855.922 329.65C853.768 330.142 851.756 331.126 850.045 332.523C845.772 335.863 844.055 340.285 846.014 342.785C846.439 343.287 846.972 343.685 847.573 343.95C848.174 344.216 848.828 344.34 849.485 344.315Z" fill="#2F2E2E"/>
<path d="M786.289 474.529C786.236 474.352 786.148 474.188 786.031 474.045C785.914 473.902 785.769 473.784 785.606 473.697C785.443 473.611 785.265 473.557 785.081 473.54C784.897 473.522 784.711 473.541 784.535 473.596C784.535 473.596 782.912 474.081 779.777 475.462C779.142 475.788 778.439 475.958 777.725 475.958C777.011 475.958 776.308 475.788 775.673 475.462C773.807 474.38 772.426 471.245 771.773 466.413C770.112 454.192 768.956 447.363 762.78 437.922C761.573 435.8 759.837 434.026 757.741 432.774C755.645 431.522 753.261 430.834 750.82 430.776C745.708 430.776 740.838 433.855 737.48 439.153C737.382 439.309 737.315 439.482 737.284 439.664C737.253 439.845 737.258 440.03 737.299 440.21C737.34 440.389 737.415 440.559 737.521 440.709C737.628 440.859 737.762 440.987 737.918 441.085C738.074 441.183 738.247 441.249 738.428 441.28C738.61 441.311 738.795 441.306 738.974 441.265C739.154 441.225 739.323 441.149 739.473 441.043C739.624 440.936 739.751 440.802 739.849 440.646C740.952 438.649 742.533 436.958 744.452 435.724C746.37 434.489 748.565 433.751 750.839 433.575C752.796 433.665 754.698 434.252 756.366 435.28C758.034 436.308 759.413 437.744 760.373 439.452C766.213 448.389 767.332 454.957 768.937 466.786C769.739 472.663 771.456 476.302 774.199 477.981C775.162 478.538 776.257 478.828 777.37 478.82C778.54 478.795 779.694 478.541 780.766 478.074C783.77 476.843 785.263 476.376 785.281 476.376C785.476 476.333 785.659 476.248 785.818 476.128C785.977 476.008 786.108 475.856 786.204 475.681C786.299 475.506 786.356 475.313 786.371 475.114C786.385 474.915 786.358 474.716 786.289 474.529Z" fill="#2F2E2E"/>
<path d="M763.807 452.009C763.623 452.018 763.443 452.064 763.276 452.143C763.11 452.223 762.961 452.334 762.838 452.471C762.715 452.608 762.621 452.768 762.559 452.941C762.498 453.115 762.472 453.299 762.482 453.483C762.583 454.349 762.481 455.227 762.183 456.046C761.885 456.866 761.399 457.604 760.765 458.203C759.582 459.053 758.231 459.641 756.803 459.927C755.374 460.214 753.901 460.192 752.481 459.864C752.131 459.843 751.786 459.956 751.514 460.178C751.242 460.4 751.064 460.717 751.015 461.064C750.966 461.412 751.049 461.765 751.248 462.054C751.447 462.343 751.747 462.547 752.089 462.625C753.022 462.761 753.964 462.829 754.907 462.83C757.716 462.971 760.477 462.06 762.65 460.274C763.585 459.396 764.308 458.316 764.764 457.117C765.219 455.917 765.396 454.63 765.281 453.352C765.261 452.979 765.096 452.629 764.82 452.378C764.544 452.126 764.18 451.994 763.807 452.009Z" fill="#2F2E2E"/>
<path d="M790.731 445.441C792.377 445.447 794 445.063 795.47 444.322C797.301 443.356 798.829 441.901 799.883 440.119C800.937 438.337 801.476 436.298 801.44 434.228C801.44 433.857 801.293 433.501 801.031 433.238C800.768 432.976 800.412 432.829 800.041 432.829C799.67 432.829 799.314 432.976 799.052 433.238C798.789 433.501 798.642 433.857 798.642 434.228C798.682 435.779 798.29 437.312 797.509 438.653C796.728 439.994 795.589 441.091 794.22 441.822C792.682 442.525 790.975 442.776 789.3 442.545C787.625 442.314 786.05 441.61 784.76 440.516C784.461 440.295 784.086 440.203 783.719 440.259C783.351 440.315 783.021 440.515 782.801 440.814C782.581 441.114 782.489 441.488 782.545 441.856C782.601 442.223 782.8 442.553 783.1 442.773C785.293 444.454 787.967 445.389 790.731 445.441Z" fill="#2F2E2E"/>
<path d="M805.899 464.938C805.585 464.932 805.278 465.032 805.028 465.222C804.777 465.411 804.598 465.68 804.519 465.983C803.913 468.763 802.749 471.39 801.098 473.706C799.446 476.021 797.341 477.977 794.91 479.454C793.25 480.468 791.408 481.145 789.487 481.445C787.566 481.746 785.605 481.666 783.715 481.208C783.444 481.161 783.165 481.194 782.913 481.304C782.661 481.414 782.447 481.596 782.298 481.827C782.149 482.058 782.071 482.327 782.074 482.602C782.077 482.877 782.161 483.145 782.316 483.373C782.689 483.858 790.208 493.448 798.772 493.448C800.482 493.453 802.169 493.057 803.698 492.291C811.832 488.28 807.746 468.26 807.261 465.983C807.18 465.684 807.002 465.42 806.756 465.231C806.51 465.043 806.209 464.94 805.899 464.938ZM802.448 489.847C796.682 492.683 790.376 487.776 786.999 484.436C790.282 484.439 793.505 483.556 796.328 481.88C800.322 479.534 803.49 476.008 805.395 471.786C806.328 479.193 806.179 488 802.448 489.847Z" fill="#2F2E2E"/>
<path d="M811.889 438.575C813.053 438.575 813.997 437.631 813.997 436.467C813.997 435.302 813.053 434.358 811.889 434.358C810.724 434.358 809.78 435.302 809.78 436.467C809.78 437.631 810.724 438.575 811.889 438.575Z" fill="#2F2E2E"/>
</svg>
